<svg version="1.2" xmlns="http://www.w3.org/2000/svg" viewBox="0 0 900 298" width="900" height="298"><defs><clipPath clipPathUnits="userSpaceOnUse" id="cp1"><path d="m831.31 152.81h-83.27l-3.19 11.44h67.32l-5.83 11.45h-64.68l-3.12 11.37h51.85l-5.2 11.34h-49.77l15.88-57.5h85.91zm-105.92 1.42q-3.19-2.11-7.56-2.11-4.72 0-9.02 2.46-4.61 2.43-7.63 6.24-3.09 4.16-4.61 9.37-1.11 5.2-0.17 9.33 1 3.81 4.09 6.2 3.19 2.08 7.87 2.08 4.34 0 8.57-2.08 4.23-2.04 7.59-5.51l6.14 8.98q-5.13 4.82-11.76 7.56-7 3.09-14.01 3.09-6.69 0-11.86-2.39-4.82-2.08-7.84-5.86-2.95-4.13-3.81-9.3-0.87-5.51 0.76-12.1 1.6-6.59 5.48-12.14 3.54-5.59 8.95-9.4 5.1-4.2 11.41-6.66 6.31-2.08 13.04-2.08 7.46 0 12.52 3.15 5.45 2.78 7.7 7.67l-11.06 9.4q-1.63-3.82-4.79-5.9zm-72.59 44.22l-15.09-35.55-8.01 35.55h-13.04l12.69-57.15h14.19l15.12 36.17 8.84-36.17h13.18l-14.18 57.15zm-282.21 28.76q-0.41 0.62-1.22 1.03-0.83 0.61-2.05 0.61-1.02 0-1.85-0.41-0.61-0.4-1.21-1.03-0.43-0.61-0.43-1.42 0-1.03 0.63-1.64 0.61-0.82 1.42-1.02 1.03-0.42 2.25-0.42h2.46q0-1.02-0.61-1.63-0.81-0.63-1.85-0.63-1.01 0-1.62 0.21-0.63 0.42-1.24 1.03l-1.01-1.03q0.6-0.81 1.62-1.22 1.03-0.41 2.25-0.41 1.24 0 2.05 0.41 1.03 0.41 1.44 1.22 0.61 0.83 0.61 2.05v5.53h-1.64zm0-3.08h-2.25q-1.22 0-2.04 0.43-0.62 0.4-0.62 1.21 0 0.83 0.62 1.24 0.41 0.41 1.43 0.41 0.81 0 1.44-0.41 0.81-0.2 1.21-0.83 0.21-0.41 0.21-0.61zm223.49-36.01h-22.51l-5.72 10.3h-14.05l33.33-57.15h15.19l9.68 57.15h-14.39zm-4.65-31.84l-11.62 20.47h14.81zm-57.4 42.17l6.38-35.24-18.66 28.34h-9.67l-8.64-29.03-6.21 35.93h-12.69l9.36-57.16h15.19l10.58 35.8 23.21-35.8h15.22l-10.99 57.16zm-43.01-114.1q-2.77 1.38-4.51 4.85-1.73 3.47-1.73 9.02v16.99h-9.02v-40.23h9.02v8.33q0.69-2.09 1.73-3.47 2.43-3.12 5.55-4.17 3.12-1.38 6.24-1.38h1.04v8.32h-1.73q-3.82 0-6.59 1.74zm-54.8 18.03q2.08 3.47 5.2 5.2 3.13 1.74 7.29 1.74 7.63 0 12.48-6.25l5.21 5.55q-3.13 3.47-7.63 5.55-4.86 2.08-10.41 2.08-6.94 0-12.14-2.77-4.85-2.43-7.98-7.28-2.77-4.86-2.77-11.1 0-6.25 2.77-11.1 2.78-4.86 7.63-7.63 4.86-2.78 11.1-2.78 5.9 0 10.41 2.78 4.51 2.77 7.28 7.28 2.78 4.86 2.78 11.1v0.35 2.77h-32.61q0.35 2.43 1.39 4.51zm21.85-10.75q-0.35-2.43-1.04-4.51-1.73-2.77-4.16-4.51-2.78-1.73-6.24-1.73-3.47 0-6.25 1.73-2.77 1.74-4.16 4.86-1.04 2.08-1.39 4.16zm20.57 68.12q-1 5.58-4.23 9.71-3.26 4.16-8.43 6.59-0.34 0-0.69 0.34l13.21 22.06h-16.44l-10.99-19.98h-23.93l-3.05 19.98h-13.39l7.87-57.16h41.52q6.1 0 10.71 2.09 4.58 2.46 6.73 6.62 1.77 4.2 1.11 9.75zm-15.22-4.86q-1.57-2.08-5.28-2.08h-27.33l-2.11 14.22h27.33q3.71 0 5.82-2.08 2.47-1.74 2.99-5.2 0.48-3.13-1.42-4.86zm-60.84-42.45q-2.43-2.43-2.43-7.63v-22.55h-7.63v-7.28h7.63v-11.1h9.02v11.1h10.41v7.28h-10.41v21.16q0 2.08 0.7 3.12 1.04 1.04 3.12 1.04h7.28v7.63h-10.06q-5.2 0-7.63-2.77zm-25.32-20.46q0-5.55-2.42-7.98-2.43-2.78-6.59-2.78-3.12 0-5.55 1.74-2.78 1.39-4.16 4.51-1.74 3.47-1.74 8.67v19.07h-9.02v-40.23h9.02v7.63q0.7-2.08 1.74-3.47 2.42-2.77 5.54-4.16 3.13-1.39 6.59-1.39 6.94 0 11.1 4.51 4.51 4.51 4.51 12.84v24.27h-9.02zm-68.67 10.41q1.74 3.12 4.86 4.85 3.12 1.74 7.28 1.74 7.63 0 12.83-6.25l4.86 5.9q-3.12 3.47-7.63 5.55-4.86 2.08-10.41 2.08-6.58 0-11.79-2.77-5.2-2.78-8.32-7.63-2.78-4.51-2.78-10.76 0-6.24 2.78-11.09 2.77-4.86 7.63-7.63 4.85-2.78 11.1-2.78 5.89 0 10.4 2.78 4.51 2.77 7.29 7.28 2.77 4.85 2.77 11.1v0.34 2.78h-32.6q0.35 2.43 1.73 4.51zm21.51-10.75q0-2.43-1.04-4.51-1.74-3.12-4.17-4.51-2.42-1.74-5.89-1.74-3.82 0-6.59 1.74-2.78 1.73-4.16 4.85-1.04 1.74-1.39 4.17zm-71.79 13.52q4.5 2.78 10.4 2.78 5.2 0 9.71-2.43 4.16-2.08 6.94-6.24l6.24 6.24q-3.81 4.85-10.06 7.98-5.89 2.77-13.18 2.77-6.59 0-12.14-2.08-5.2-2.43-9.36-6.24-3.81-4.16-6.24-9.71-2.08-5.55-2.08-11.8 0-6.59 2.42-12.14 2.09-5.54 6.25-9.36 3.81-4.16 9.36-6.24 5.55-2.43 12.14-2.43 7.28 0 13.18 2.77 5.9 3.13 9.71 7.98l-6.24 6.24q-2.78-4.16-6.94-6.59-4.51-2.08-9.71-2.08-5.9 0-10.4 2.78-4.86 2.77-7.29 7.63-2.77 4.85-2.77 11.44 0 6.25 2.77 11.1 2.43 4.86 7.29 7.63zm5.68 38.22q4.65 2.46 7.25 6.63 2.26 4.19 1.74 9.74-0.49 5.59-3.3 9.71-3.15 4.17-7.91 6.59-0.34 0-0.66 0l14.78 22.41h-16.06l-12.87-20.33h-18.69l-1.46 20.33h-13.04l3.19-57.54h35.94q6.45 0 11.09 2.46zm-6.38 11.17q-1.97-1.73-5.34-1.73h-22.37l-1.01 13.87h22.38q3.36 0 5.75-1.73 2.08-2.09 2.15-5.21 0.42-3.12-1.56-5.2zm-44.04-97.25v57.57h-9.02v-57.57zm-59.82 158.23v13.11h-1.22v-1.44q-0.63 0.62-1.44 1.03-0.81 0.61-2.05 0.61-1.44 0-2.45-0.61-1.02-0.61-1.65-1.64-0.61-1.22-0.61-2.46 0-1.44 0.61-2.45 0.63-1.02 1.65-1.65 1.01-0.61 2.45-0.61 0.81 0 1.64 0.21 0.82 0.4 1.43 1.03 0.2 0.41 0.42 0.61v-5.74zm-1.85 6.76q-0.4-0.82-1.23-1.22-0.61-0.63-1.63-0.63-1.03 0-1.64 0.63-0.83 0.4-1.24 1.22-0.4 0.83-0.4 1.84 0 1.03 0.4 1.85 0.41 0.81 1.24 1.22 0.61 0.42 1.64 0.42 1.02 0 1.63-0.42 0.83-0.41 1.23-1.02 0.21-0.2 0.41-0.61v-1.23q0-1.02-0.41-2.05zm-9.5-69.13l-0.28 11.1h64.48l-0.56 11.45h-64.16l-0.21 11.72h63.61l-0.52 11.03h-63.3l1.15-57.16h65.51l-0.55 11.86c0.66 0-48.63 0-65.17 0zm51.75-95.86v57.92h-8.67v-57.92zm-26.36 52.72q-2.08 2.77-5.21 4.51-4.16 2.08-9.01 2.08-4.86 0-8.33-1.74-3.46-1.73-5.55-4.51-1.73-3.12-1.73-6.93 0-4.16 2.43-6.94 2.43-3.12 6.59-4.51 4.51-1.73 10.06-1.73h10.05q0-4.16-2.77-6.59-2.78-2.78-7.98-2.78-3.47 0-6.59 1.39-3.12 1.74-5.2 4.16l-5.2-5.55q3.12-3.46 7.63-5.2 4.51-1.73 9.71-1.73 5.89 0 10.06 1.73 4.51 2.08 6.59 5.9 2.42 3.47 2.42 8.67v24.97h-7.97zm-0.7-13.87h-9.36q-4.86 0-7.63 1.73-3.12 1.74-3.12 5.2 0 2.78 2.43 4.51 2.08 1.74 5.89 1.74 3.47 0 6.24-1.39 3.13-1.39 4.51-3.82 0.7-1.04 1.04-2.08zm-52.02 123.28l-2.87 9.01h-1.63l-2.25-7.36-2.05 7.36h-1.64l-2.86-9.01h1.44l2.25 7.57 2.23-7.57h1.44l2.25 7.57 2.26-7.57zm-16.28-114.26q4.51 2.78 10.41 2.78 5.2 0 9.71-2.43 4.16-2.43 6.94-6.25l6.24 6.25q-3.82 4.85-9.71 7.97-6.24 2.78-13.53 2.78-6.59 0-11.79-2.08-5.55-2.43-9.71-6.59-3.82-3.82-5.9-9.37-2.42-5.54-2.42-11.79 0-6.59 2.42-12.14 2.08-5.55 6.25-9.36 4.16-4.16 9.36-6.59 5.55-2.08 12.14-2.08 7.28 0 13.18 2.77 5.89 3.12 9.71 7.98l-6.24 6.24q-2.78-4.16-6.94-6.59-4.51-2.08-9.71-2.08-5.9 0-10.41 2.78-4.5 2.77-7.28 7.63-2.77 4.85-2.77 11.44 0 6.25 2.77 11.1 2.78 4.86 7.28 7.63zm25.91 38.22q4.72 2.46 7.42 6.63 2.67 4.19 2.64 9.74-0.07 5.58-2.77 9.71-3.06 4.16-7.77 6.59-4.72 2.08-11.1 2.08h-20.05l-0.38 19.98h-13.04v-57.19h33.95q6.39 0 11.1 2.46zm-31.56 9.43l-0.03 13.88h20.04q3.71 0 5.73-1.74 2.01-2.08 2.04-5.2 0-3.12-2.01-5.2-1.98-1.74-5.38-1.74zm-11.65 68.46q0.22-0.41 0.42-0.61 0.41-0.83 1.43-1.03 0.83-0.41 1.64-0.41 1.44 0 2.45 0.61 1.02 0.61 1.44 1.64 0.61 1.02 0.61 2.46 0 1.44-0.61 2.45-0.62 1.04-1.64 1.64-1.01 0.61-2.25 0.61-1.24 0-2.25-0.4-0.82-0.61-1.24-1.24v4.91h-1.42v-12.48h1.42zm0 4.1q0.22 0.41 0.42 0.81 0.41 0.61 1.22 1.04 0.61 0.4 1.65 0.4 1.01 0 1.64-0.4 0.81-0.63 1.22-1.44 0.4-0.82 0.4-1.85 0-1.01-0.4-1.84-0.41-0.82-1.02-1.22-0.83-0.41-1.84-0.41-0.82 0-1.65 0.41-0.81 0.61-1.22 1.42-0.42 0.83-0.42 2.05zm12.09-5.52q1.02-0.61 2.25-0.61 1.43 0 2.46 0.61 1.22 0.61 1.62 1.64 0.63 1.02 0.63 2.46 0 1.21-0.63 2.45-0.4 1.02-1.62 1.64-1.03 0.61-2.46 0.61-1.23 0-2.25-0.61-1.23-0.62-1.84-1.64-0.61-1.24-0.61-2.45 0-1.44 0.61-2.46 0.61-1.03 1.84-1.64zm-0.63 5.94q0.43 0.81 1.24 1.22 0.81 0.41 1.64 0.41 1.02 0 1.85-0.41 0.61-0.41 1.01-1.22 0.61-0.83 0.61-1.84 0-1.04-0.61-1.85-0.4-0.81-1.01-1.24-0.83-0.61-1.85-0.61-0.83 0-1.64 0.61-0.81 0.43-1.24 1.24-0.4 0.81-0.4 1.85 0 1.01 0.4 1.84zm25.61-5.94q1.01-0.61 2.45-0.61 1.22 0 2.25 0.61 1.02 0.4 1.63 1.64 0.63 1.02 0.63 2.25v0.21 0.4h-7.79q0.2 0.81 0.4 1.44 0.43 0.81 1.24 1.22 0.81 0.41 1.85 0.41 1.84 0 3.06-1.63l1.03 0.81q-0.83 1.02-1.84 1.44-1.04 0.61-2.25 0.61-1.44 0-2.46-0.61-1.24-0.62-1.85-1.64-0.6-1.24-0.6-2.45 0-1.44 0.6-2.46 0.61-1.03 1.65-1.64zm5.52 3.47q0-0.81-0.41-1.42-0.41-0.61-1.03-1.24-0.81-0.41-1.63-0.41-1.03 0-1.64 0.61-0.81 0.43-1.24 1.24-0.2 0.41-0.4 1.22zm4.91-1.83q0.2-0.63 0.42-1.03 0.61-0.61 1.42-0.82 0.61-0.4 1.44-0.4h0.21v1.42h-0.41q-0.83 0-1.44 0.41-0.81 0.42-1.22 1.23-0.42 0.82-0.42 2.26v3.89h-1.42v-9.01h1.42zm6.75-1.64q1.04-0.61 2.46-0.61 1.24 0 2.25 0.61 1.03 0.61 1.64 1.64 0.61 1.02 0.61 2.46v0.4h-7.77q0 0.82 0.41 1.44 0.4 0.82 1.23 1.22 0.82 0.41 1.83 0.41 1.85 0 3.08-1.63l0.82 1.02q-0.61 0.81-1.65 1.44-1.01 0.4-2.25 0.4-1.42 0-2.66-0.61-1.01-0.62-1.62-1.64-0.63-1.03-0.63-2.45 0-1.44 0.63-2.46 0.61-1.03 1.62-1.64zm5.54 3.49q-0.2-0.83-0.41-1.24-0.42-0.81-1.03-1.22-0.81-0.42-1.64-0.42-1.02 0-1.83 0.42-0.63 0.41-1.03 1.22-0.41 0.61-0.41 1.24zm19.86-2.05q0.21-0.41 0.41-0.63 0.61-0.81 1.42-1.01 0.83-0.41 1.64-0.41 1.44 0 2.46 0.61 1.03 0.61 1.44 1.64 0.61 1.02 0.61 2.46 0 1.42-0.61 2.45-0.61 1.02-1.64 1.64-1.02 0.61-2.26 0.61-1.21 0-2.25-0.4-0.81-0.63-1.22-1.24v1.44h-1.44v-13.11h1.44zm0 4.1q0.21 0.41 0.41 0.82 0.41 0.62 1.22 1.03 0.83 0.4 1.64 0.4 1.02 0 1.64-0.4 0.82-0.63 1.22-1.44 0.41-0.81 0.41-1.85 0-1.01-0.41-1.84-0.4-0.82-1.01-1.22-0.83-0.41-1.85-0.41-0.81 0-1.64 0.41-0.81 0.61-1.22 1.44-0.41 0.81-0.41 2.03zm10.23-5.93l3.07 7.57 3.28-7.57h1.22l-4.5 10.43q-0.41 1.04-0.82 1.44-0.61 0.61-1.84 0.61h-0.82v-1.22h0.82q0.62 0 1.03-0.2 0.41-0.42 0.61-1.03l0.41-1.02-3.9-9.01zm19.66 5.73l4.71-9.82h2.05v13.1h-1.65v-10.45l-4.5 9.22h-1.22l-4.5-9.22v10.45h-1.65v-13.1h2.26zm95.4-83.82h55.84l-1.08 11.52h-41.97l-1.07 11.44h40.58l-1.42 11.45h-40.2l-2.08 22.75h-13.35zm-84.55 81.97q1.01-0.41 2.05-0.41h2.66q0-1.02-0.61-1.64-0.83-0.61-2.05-0.61-0.83 0-1.44 0.4-0.81 0.21-1.24 0.83l-1.01-1.03q0.61-0.81 1.64-1.22 1.01-0.42 2.25-0.42 1.22 0 2.05 0.42 1.02 0.61 1.42 1.22 0.63 0.83 0.63 2.05v5.54h-1.64v-1.04q-0.41 0.61-1.24 0.82-0.81 0.62-2.05 0.62-1.01 0-1.83-0.4-0.83-0.43-1.23-1.04-0.41-0.61-0.41-1.43 0-1.02 0.61-1.63 0.41-0.63 1.44-1.03zm0.2 3.69q0.61 0.4 1.42 0.4 1.04 0 1.65-0.2 0.83-0.41 1.23-1.01 0-0.22 0.21-0.63v-1.42h-2.46q-1.03 0-1.84 0.4-0.61 0.41-0.61 1.43 0 0.62 0.4 1.03zm10.03-5.74q0.2-0.41 0.4-0.81 0.63-0.61 1.24-0.82 0.81-0.42 1.64-0.42 1.63 0 2.46 1.03 1.01 1.02 1.01 2.86v5.34h-1.64v-5.13q0-1.22-0.61-2.05-0.61-0.61-1.64-0.61-0.82 0-1.42 0.4-0.61 0.41-1.04 1.24-0.4 0.81-0.4 2.05v4.1h-1.63v-8.81h1.63zm10.85-1.64q1.02-0.61 2.25-0.61 1.02 0 1.85 0.41 0.61 0.4 1.22 1.01 0.2 0.21 0.4 0.63v-1.64h1.65v7.97q0 1.44-0.61 2.46-0.61 1.03-1.85 1.64-1.02 0.61-2.45 0.61-1.24 0-2.26-0.41-1.01-0.4-1.84-1.22l1.03-1.03q0.61 0.63 1.42 0.83 0.63 0.41 1.65 0.41 1.01 0 1.64-0.41 0.81-0.42 1.22-1.03 0.4-0.82 0.4-1.64v-0.82q-0.61 0.82-1.22 1.24-1.03 0.4-2.04 0.4-1.44 0-2.46-0.6-1.02-0.63-1.64-1.65-0.61-1.03-0.61-2.45 0-1.24 0.61-2.46 0.62-1.03 1.64-1.64zm0 5.72q0.41 0.83 1.02 1.24 0.62 0.41 1.64 0.41 0.81 0 1.44-0.41 0.81-0.2 1.22-0.81 0.2-0.43 0.4-0.83v-0.82q0-1.23-0.4-2.04-0.61-0.82-1.22-1.24-0.63-0.41-1.44-0.41-1.02 0-1.64 0.63-0.82 0.41-1.02 1.02-0.41 0.81-0.41 1.64 0 1.01 0.41 1.62zm11.67-5.72q1.01-0.61 2.45-0.61 1.44 0 2.46 0.61 1.23 0.61 1.84 1.85 0.61 1.01 0.61 2.45 0 1.22-0.61 2.46-0.61 1.01-1.84 1.64-1.02 0.61-2.46 0.61-1.44 0-2.45-0.61-1.02-0.63-1.65-1.64-0.61-1.24-0.61-2.46 0-1.44 0.61-2.45 0.63-1.24 1.65-1.85zm-0.21 5.94q0.41 0.82 1.02 1.22 0.83 0.41 1.64 0.41 1.03 0 1.64-0.41 0.61-0.4 1.02-1.22 0.41-0.83 0.41-1.64 0-1.03-0.41-1.84-0.41-0.61-1.02-1.24-0.61-0.41-1.64-0.41-0.81 0-1.64 0.41-0.61 0.63-1.02 1.24-0.4 0.81-0.4 1.84 0 0.81 0.4 1.64zm170.45-93.02l-20.33 38.32c-1.77 2.78-4.92 4.86-8.6 4.86-4.72 0-8.22-3.82-7.7-8.67 0.45-2.43 1.18-4.17 2.6-5.9zm-33.26 67.28q-6.69 0-11.96-2.39-5.27-2.05-8.81-5.83-3.54-4.12-5.34-9.64-1.46-5.2-0.91-11.76 0.59-6.58 3.47-12.17 2.92-5.2 7.49-9.4 4.55-4.19 10.37-6.28 5.83-2.46 12.94-2.46 3.71 0 6.73 0.73l-15.09 12.9q-1 0.35-2.04 1.04-4.17 2.43-6.66 6.28-2.53 4.16-3.09 9.36-0.52 5.17 0.97 9.33 1.87 3.78 5.13 6.21 3.61 2.08 8.29 2.08 4.69 0 8.47-2.08 4.16-2.43 6.66-6.21 1.45-2.42 2.28-5.54l11.76-21.85q1.87 2.77 2.74 5.89 1.42 5.59 0.8 12.17-0.97 6.56-3.92 11.76-2.95 5.52-7.49 9.64-4.54 3.78-10.3 5.83-5.79 2.39-12.49 2.39zm-122.43 17.35q1.03-1.04 2.25-1.44 1.24-0.41 2.66-0.41 1.44 0 2.67 0.41 1.22 0.4 2.26 1.44 0.81 0.81 1.42 2.05 0.4 1.22 0.4 2.86 0 1.44-0.4 2.66-0.61 1.23-1.42 2.05-1.04 1.03-2.26 1.43-1.23 0.61-2.67 0.61-1.42 0-2.66-0.61-1.22-0.4-2.25-1.43-0.81-0.82-1.42-2.05-0.41-1.22-0.41-2.66 0-1.64 0.41-2.86 0.61-1.24 1.42-2.05zm0.62 7.57q0.61 1.03 1.63 1.84 1.24 0.61 2.66 0.61 1.44 0 2.67-0.61 1.02-0.81 1.63-1.84 0.63-1.22 0.63-2.66 0-1.64-0.63-2.86-0.61-1.04-1.63-1.85-1.23-0.61-2.67-0.61-1.42 0-2.66 0.61-1.02 0.81-1.63 1.85-0.62 1.22-0.62 2.86 0 1.44 0.62 2.66zm14.33-6.96q0-2.25 2.25-2.25h2.05v1.23h-1.44q-0.61 0-0.81 0.2-0.41 0.41-0.41 0.82v1.64h2.66v1.42h-2.66v7.59h-1.64v-7.59h-1.64v-1.42h1.64zm6.96 0q0-2.25 2.45-2.25h1.85v1.44h-1.44q-0.61 0-0.81 0.2-0.21 0.2-0.21 0.81v1.65h2.46v1.42h-2.46v7.58h-1.84v-7.58h-1.64v-1.42h1.64zm6.76-2.66q0.61 0 0.81 0.4 0.4 0.41 0.4 0.82 0 0.4-0.4 0.81-0.2 0.2-0.81 0.2-0.41 0-0.61-0.2-0.43-0.41-0.43-0.81 0-0.41 0.43-0.82 0.2-0.4 0.61-0.4zm1.01 4.48v9.01h-1.84v-9.01zm4.3 0.22q1.03-0.62 2.45-0.62 1.24 0 2.05 0.62 1.03 0.41 1.64 1.22l-1.03 1.04q-0.41-0.63-1.22-1.04-0.61-0.4-1.44-0.4-0.81 0-1.62 0.61-0.63 0.4-1.04 1.03-0.4 0.81-0.4 1.85 0 1.01 0.4 1.62 0.41 0.83 1.04 1.24 0.81 0.4 1.62 0.4 0.83 0 1.44-0.4 0.81-0.41 1.22-1.04l1.03 1.24q-0.61 0.61-1.64 1.22-0.81 0.42-2.05 0.42-1.42 0-2.45-0.62-1.22-0.61-1.85-1.63-0.61-1.03-0.61-2.45 0-1.44 0.61-2.48 0.63-1.22 1.85-1.83zm9.61 0q1.04-0.62 2.46-0.62 1.24 0 2.25 0.62 1.03 0.61 1.64 1.63 0.61 1.24 0.61 2.45v0.23 0.4h-7.57q0.21 0.81 0.41 1.22 0.41 0.83 1.24 1.24 0.81 0.4 1.62 0.4 1.85 0 3.08-1.44l1.02 1.04q-0.81 0.81-1.85 1.42-1.01 0.42-2.25 0.42-1.42 0-2.66-0.62-1.01-0.61-1.62-1.63-0.83-1.03-0.83-2.45 0-1.44 0.63-2.48 0.61-1.22 1.82-1.83zm5.14 3.48q0-0.61-0.23-1.02-0.4-0.83-1.01-1.24-0.61-0.4-1.44-0.4-1.02 0-1.63 0.4-0.62 0.41-1.03 1.24-0.2 0.41-0.41 1.02zm16.99-6.15h-4.29v11.46h-1.64v-11.46h-4.3v-1.63h10.23zm1.03 6.35q1.02-0.42 2.25-0.42h2.46q0-1.02-0.61-1.63-0.83-0.62-1.85-0.62-1.03 0-1.64 0.2-0.61 0.42-1.22 1.03l-1.03-1.03q0.61-0.81 1.64-1.22 1.02-0.4 2.25-0.4 1.22 0 2.05 0.4 1.02 0.41 1.42 1.22 0.63 0.83 0.63 2.05v5.54h-1.64v-1.24q-0.41 0.61-1.24 1.03-0.81 0.61-2.03 0.61-1.03 0-1.85-0.4-0.62-0.41-1.23-1.04-0.41-0.61-0.41-1.42 0-1.03 0.61-1.64 0.63-0.61 1.44-1.02zm0.41 3.68q0.4 0.4 1.44 0.4 0.81 0 1.42-0.4 0.83-0.21 1.24-0.82 0.2-0.2 0.2-0.6v-1.44h-2.25q-1.24 0-2.05 0.4-0.61 0.41-0.61 1.24 0 0.81 0.61 1.22zm9.82-5.93q0.2-0.22 0.42-0.42 0.41-0.61 1.22-1.02 0.81-0.4 1.85-0.4 1.22 0 2.25 0.6 1.01 0.61 1.64 1.65 0.61 1.22 0.61 2.45 0 1.42-0.61 2.46-0.63 1.22-1.64 1.84-1.03 0.61-2.46 0.61-1.03 0-2.05-0.61-0.81-0.42-1.23-1.03v1.24h-1.63v-12.91h1.63zm0 4.3q0.2 0.21 0.42 0.61 0.41 0.63 1.22 0.83 0.61 0.41 1.44 0.41 1.02 0 1.63-0.41 0.62-0.42 1.03-1.23 0.41-0.81 0.41-1.64 0-1.02-0.41-1.83-0.2-0.63-1.03-1.04-0.61-0.4-1.43-0.4-1.03 0-1.64 0.4-0.81 0.41-1.22 1.24-0.42 0.81-0.42 1.83zm11.67-10.03v13.11h-1.63v-13.11zm4.3 4.51q1.03-0.61 2.46-0.61 1.23 0 2.25 0.61 1.03 0.63 1.64 1.64 0.61 1.03 0.61 2.46v0.2 0.41h-7.57q0.2 0.62 0.41 1.23 0.4 0.81 1.23 1.22 0.82 0.42 1.85 0.42 1.62 0 2.86-1.64l1.02 1.22q-0.61 0.83-1.63 1.24-1.03 0.61-2.47 0.61-1.42 0-2.46-0.61-1.22-0.61-1.82-1.85-0.63-1.01-0.63-2.45 0-1.22 0.63-2.46 0.6-1.01 1.62-1.64zm5.33 3.49q-0.2-0.61-0.42-1.24-0.41-0.61-1.01-1.02-0.61-0.4-1.44-0.4-0.82 0-1.63 0.4-0.63 0.41-1.03 1.22-0.21 0.43-0.41 1.04zm14.95-7.37q1.02 0.61 1.63 1.42 0.62 0.83 0.62 1.85 0 1.24-0.62 2.05-0.61 0.81-1.63 1.23-0.83 0.41-2.25 0.41h-3.28v5.52h-1.85v-12.9h5.13q1.42 0 2.25 0.42zm-5.53 5.52h3.28q1.22 0 2.03-0.61 0.63-0.61 0.63-1.64 0-1.02-0.63-1.64-0.81-0.61-2.03-0.61h-3.28zm20.87 0q0.21-0.41 0.41-0.82 0.63-0.62 1.24-1.03 0.81-0.2 1.64-0.2h0.2v1.64h-0.4q-0.83 0-1.65 0.41-0.61 0.2-1.03 1.23-0.41 0.82-0.41 2.05v3.68h-1.62v-8.81h1.62zm6.96 5.54q0.83 0.4 1.65 0.4 1.01 0 1.64-0.4 0.61-0.41 0.61-1.03 0-0.61-0.41-1.02-0.61-0.2-2.05-0.41-1.84-0.42-2.86-0.83-0.83-0.61-0.83-1.84 0-0.81 0.63-1.42 0.4-0.61 1.22-1.04 0.81-0.2 2.05-0.2 1.23 0 2.25 0.42 0.81 0.41 1.64 1.22l-1.03 1.02q-0.61-0.61-1.22-1.02-0.83-0.4-1.64-0.4-1.02 0-1.65 0.4-0.61 0.41-0.61 1.02 0 0.42 0.61 0.83 0.63 0.2 1.85 0.4 2.05 0.21 2.86 0.82 0.83 0.83 0.83 1.84 0 0.83-0.41 1.64-0.42 0.61-1.44 1.02-0.81 0.2-2.04 0.2-1.24 0-2.46-0.4-1.03-0.41-1.85-1.22l1.04-1.03q0.81 0.62 1.62 1.03zm9.42-7.16q1.03-0.63 2.45-0.63 1.44 0 2.48 0.63 1.01 0.61 1.42 1.62 0.61 1.03 0.61 2.46v0.62h-7.37q0 0.61 0.2 1.22 0.41 0.61 1.24 1.04 0.81 0.6 1.85 0.6 1.62 0 2.86-1.64l1.01 1.04q-0.61 1.01-1.62 1.42-1.03 0.4-2.46 0.4-1.44 0-2.47-0.61-1.22-0.61-1.83-1.64-0.62-1.01-0.62-2.45 0-1.43 0.62-2.46 0.61-1.01 1.63-1.62zm5.33 3.47q-0.2-0.61-0.4-1.22-0.43-0.63-1.04-1.03-0.61-0.41-1.44-0.41-0.81 0-1.62 0.41-0.63 0.4-1.04 1.03-0.2 0.61-0.2 1.22zm5.34-1.85q0.2-0.61 0.4-1.01 0.61-0.61 1.22-0.82 0.83-0.42 1.64-0.42h0.21v1.64h-0.41q-0.81 0-1.64 0.41-0.61 0.4-1.02 1.23-0.4 0.82-0.4 2.26v3.67h-1.65v-9.01h1.65z"/></clipPath></defs><style></style><g clip-path="url(#cp1)"><path fill="currentColor" d="m1523 10v330.6h-2145v-330.6z"/></g></svg>