<svg version="1.2" xmlns="http://www.w3.org/2000/svg" viewBox="0 0 900 298" width="900" height="298">
	<title>performanceBig копия копия</title>
	<style>
		.s0 { fill: #ff0000 } 
	</style>
	<path id="powered by Mango Office Table Pa" fill-rule="evenodd" class="s0" d="m873.2 161.4q-3-4.2-7.8-6.6-4.8-2.5-9.7-2.5-4.9 0.1-8 1.8-3.1 1.9-3.1 4.7-0.1 1.7 1.1 2.8 1.2 1.2 4.3 2 3 0.9 8.4 1.8 8.4 1.3 13.9 4 5.6 2.7 8.4 6.8 2.7 4.1 2.6 9.8-0.1 6.3-3.8 10.9-3.7 4.6-10 7.1-6.3 2.4-14.5 2.4-9.7 0-17.2-3.3-7.6-3.4-12.2-8.7l10.3-10.3q2 2.8 5.3 4.9 3.2 2.1 7 3.1 3.8 1.1 7.4 1.1 3.9 0 6.6-0.8 2.7-0.7 4-2.1 1.4-1.4 1.4-3.3 0.1-2.7-2.8-4.5-3-1.9-11.1-3.1-8.6-1.2-14.1-3.8-5.5-2.6-8.2-6.5-2.6-3.9-2.5-9.2 0.1-6 3.6-10.7 3.5-4.7 9.6-7.3 6-2.7 13.6-2.7 9.1 0 16.1 3.3 7 3.4 11.6 8.7zm-68.8-6.4q-4.2-2.3-9.2-2.3-5.4 0-9.8 2.6-4.3 2.6-6.8 7.1-2.5 4.5-2.6 10.3-0.1 5.9 2.2 10.4 2.4 4.6 6.6 7.1 4.2 2.6 9.6 2.6 5.1 0 9.4-2.4 4.3-2.3 7.2-6.2l9.7 10.2q-4.4 5.3-11.5 8.6-7 3.4-15.4 3.4-7.8 0-14.2-2.5-6.3-2.5-10.9-7-4.5-4.5-6.9-10.6-2.4-6.2-2.3-13.6 0.2-7.3 2.9-13.4 2.7-6.2 7.5-10.7 4.8-4.5 11.3-7 6.5-2.4 14.2-2.5 8.4 0.1 15.1 3.4 6.8 3.3 11 8.6l-10.1 10.2q-2.7-4-7-6.3zm-25-58.2q2 3.6 5.6 5.5 3.5 2 8.2 2 8.6 0 14.1-7l5.8 6.3q-3.5 4.1-8.7 6.4-5.2 2.4-11.6 2.4-7.6 0-13.4-3.1-5.8-3-9.1-8.4-3.3-5.4-3.3-12.4 0-7 3.2-12.4 3.1-5.4 8.6-8.5 5.5-3 12.3-3 6.7 0 11.8 3 5.2 3 8.1 8.3 3 5.3 3 12.2v0.1 0.4 3.1h-36.4q0.5 2.8 1.8 5.1zm24.4-12q-0.3-2.8-1.4-5-1.7-3.4-4.6-5.3-2.9-1.8-6.7-1.8-4.1 0-7.2 1.9-3.1 2-4.8 5.4-1.1 2.2-1.5 4.8zm-61.5-1.3q9.9 1.4 14.6 4.7 4.6 3.3 4.6 9.4 0 4.4-2.6 7.8-2.6 3.3-7.2 5.1-4.6 1.9-10.7 1.9-6.6 0-12-2.2-5.5-2.2-9.5-6.1l5.9-6.3q3 3.2 7.2 4.9 4.2 1.9 8.8 1.8 4.7 0 7.4-1.7 2.8-1.8 2.8-4.6 0-2.5-2.4-3.9-2.5-1.4-8.8-2.2-9.9-1.4-14.4-4.5-4.4-3.1-4.4-8.6 0-4.3 2.5-7.6 2.5-3.2 6.8-5 4.4-1.8 9.9-1.8 6.5 0 11.5 2.1 5 2.2 8.7 5.9l-5.9 6.4q-2.7-3.1-6.3-4.9-3.6-1.8-7.9-1.8-4.2 0-6.8 1.7-2.6 1.7-2.6 4.3 0 2.1 2.4 3.3 2.3 1.1 8.4 1.9zm-38.3 1.5q0-6-2.7-9-2.7-3-7.3-3-3.3 0.1-6.2 1.8-2.9 1.7-4.7 5.4-1.8 3.7-1.8 9.5v21.2h-10.1v-44.9h10v8.6q0.8-2.3 2.1-3.9 2.6-3.3 6.1-4.7 3.6-1.4 7.2-1.4 8.1 0 12.8 4.9 4.7 5 4.7 14.4v27h-10.1zm-52 24.3q-5.6 3.1-12.8 3.1-7.1 0-12.6-3.1-5.6-3-8.7-8.4-3.2-5.4-3.2-12.4 0-7 3.2-12.4 3.1-5.4 8.7-8.4 5.5-3.1 12.6-3.1 7.2 0 12.8 3.1 5.5 3 8.6 8.4 3.1 5.4 3.1 12.4 0 7-3.1 12.4-3.1 5.4-8.6 8.4zm-0.5-28.8q-1.7-3.5-4.9-5.5-3.2-1.9-7.3-1.9-4.1 0-7.3 1.9-3.2 1.9-5 5.4-1.7 3.6-1.7 8.1 0 4.6 1.7 8 1.8 3.5 5 5.5 3.2 1.9 7.3 1.9 4.1 0 7.3-1.9 3.2-2 4.9-5.5 1.8-3.4 1.8-8 0-4.5-1.8-8zm-53.6 28.8q-5.1 3.1-11.6 3.1-5.9 0-10.3-2.5-3.4-2-5.5-5.1v23.6h-10.1v-62.4h10v7.5q0.4-0.8 1-1.5 2.5-3.4 6.4-5.4 4-2 8.9-2 6.3 0 11.3 3.1 5.1 3 8.1 8.4 3 5.4 3 12.4 0 7-3 12.4-3.1 5.4-8.2 8.4zm-1.1-28.8q-1.7-3.5-4.8-5.5-3.1-1.9-7.3-1.9-4.2 0-7.4 2-3.1 2-5 5.6-1.8 3.6-1.8 8.5v5.7q0.6 1.8 1.7 3.3 1.9 2.7 5.1 4.2 3.2 1.5 6.8 1.5 4.5 0 7.6-1.9 3.2-2 5-5.5 1.8-3.5 1.8-8 0-4.4-1.7-8zm-63 3q9.9 1.5 14.6 4.7 4.7 3.3 4.7 9.4 0 4.5-2.6 7.8-2.6 3.3-7.2 5.2-4.6 1.8-10.7 1.8-6.6 0-12.1-2.2-5.5-2.2-9.4-6.1l5.8-6.3q3.1 3.2 7.3 5 4.1 1.8 8.7 1.8 4.7 0 7.5-1.8 2.8-1.7 2.8-4.5 0-2.5-2.5-3.9-2.5-1.4-8.8-2.2-9.9-1.5-14.3-4.6-4.5-3.1-4.5-8.6 0-4.3 2.6-7.6 2.5-3.2 6.8-5 4.3-1.8 9.9-1.8 6.5 0 11.5 2.2 5 2.1 8.7 5.8l-5.9 6.4q-2.8-3-6.4-4.9-3.6-1.7-7.8-1.8-4.2 0.1-6.9 1.7-2.6 1.7-2.6 4.3 0 2.2 2.4 3.3 2.4 1.1 8.4 1.9zm-61.6 13.3q2.1 3.6 5.6 5.6 3.6 1.9 8.2 1.9 8.6 0 14.2-6.9l5.7 6.3q-3.5 4-8.7 6.4-5.2 2.3-11.6 2.3-7.6 0-13.4-3.1-5.8-3-9.1-8.4-3.2-5.4-3.2-12.4 0-7 3.1-12.4 3.2-5.4 8.6-8.4 5.5-3.1 12.4-3.1 6.6 0 11.8 3 5.1 3 8.1 8.3 2.9 5.3 2.9 12.2v0.1 0.4 3.1h-36.3q0.4 2.8 1.7 5.1zm24.5-11.9q-0.4-2.8-1.5-5.1-1.7-3.4-4.6-5.2-2.9-1.9-6.7-1.9-4.1 0-7.2 1.9-3.1 2-4.8 5.4-1 2.2-1.4 4.9zm-54-2.5q-2.2 1-4.7 1.6l21.9 27h-12.8l-20.5-26.2h-10.9v26.2h-10.4v-64.4h25.7q6.7 0 11.7 2.4 5.1 2.4 7.9 6.7 2.9 4.2 2.9 10 0 5.7-2.9 10-2.8 4.3-7.9 6.7zm-3-24.2q-3.2-2.8-8.7-2.8h-15.3v20.5h15.3q5.5 0.1 8.7-2.7 3.2-2.7 3.2-7.5 0-4.8-3.2-7.5zm-11.7 82.4h15.3l-1.2 64.4h-16.1l-26.1-40.3-0.8 40.3h-15.2l1.2-64.4h16.1l26.1 40.2zm-57.7-29.6l-22.6-21v21h-10.1v-64.8h10.1v39.9l20.8-20h12.5l-23 21.6 25.6 23.3zm5.9 94h-16.7l-4-11.7h-26.1l-4.5 11.7h-16.1l26.3-64.4h17.1zm-33-47.5l-8.8 23h16.7zm-38.3-55.5q3.2 2 7.3 2 4.3 0 7.3-1.9 3-1.9 5-4.8l6.5 6.3q-3.4 4.1-8.2 6.5-4.9 2.4-11.2 2.4-6.9 0-12.4-3.1-5.4-3.1-8.6-8.5-3.1-5.3-3.1-12.4 0-6.9 3.1-12.2 3.2-5.4 8.7-8.5 5.6-3.1 12.6-3.1 6.1 0 10.9 2.3 4.8 2.4 8.2 6.6l-6.5 6.3q-2-3.1-5-4.9-3-1.8-7.3-1.8-4.1 0-7.3 1.9-3.3 2-5.1 5.5-1.8 3.4-1.8 7.9 0 4.5 1.8 8.1 1.8 3.5 5.1 5.4zm-85.7 51.4l0.2-12.7h67l-0.2 12.7zm52.2-48q-2.3 2.9-5.7 4.7-4.5 2.4-10.3 2.4-5.1 0-9.1-1.9-3.9-1.9-6.1-5.1-2.1-3.3-2.1-7.6 0-4.7 2.7-8 2.7-3.2 7.5-5 4.8-1.8 11.1-1.8h11.5q-0.1-4.8-3.2-7.6-3.3-2.8-8.8-2.8-4.1 0-7.6 1.6-3.4 1.6-5.9 4.5l-5.8-6.3q3.7-3.7 8.6-5.7 5-2.1 11-2.1 6.4 0 11.2 2.2 4.8 2.2 7.5 6.3 2.7 4.2 2.7 9.9v27.9h-9.2zm-0.5-15.3h-10.6q-5.3 0-8.6 1.9-3.3 1.9-3.3 5.6 0 3.3 2.5 5.2 2.6 2 6.6 2 3.9 0 7.1-1.6 3.3-1.7 5.2-4.5 0.7-1 1.1-2.1zm-49.3 19.3q-5.1 3.1-11.6 3.1-6 0-10.3-2.5-3.5-2-5.6-5.3v6.4h-10v-64.8h10v27q0.4-0.6 0.9-1.2 2.5-3.4 6.4-5.4 4-2 8.9-2 6.3 0 11.4 3.1 5.1 3 8.1 8.4 3 5.4 3 12.4 0 7-3.1 12.4-3 5.4-8.1 8.4zm-1.1-28.8q-1.7-3.5-4.8-5.4-3.1-2-7.2-2-4.2 0-7.4 2-3.3 2-5.1 5.6-1.9 3.6-1.9 8.5v5.7q0.7 1.8 1.8 3.3 1.9 2.7 5.1 4.2 3.1 1.5 6.8 1.5 4.4 0 7.6-1.9 3.2-2 5-5.5 1.8-3.5 1.8-8 0-4.4-1.7-8zm-55.9-34.3h10.1v64.8h-10.1zm-19.4 0h10.1v64.8h-10.1zm-17.9 59.1q-2.3 2.9-5.7 4.7-4.5 2.4-10.3 2.4-5.1 0-9-1.9-4-1.9-6.2-5.1-2.1-3.3-2.1-7.6 0-4.7 2.7-7.9 2.7-3.3 7.5-5.1 4.8-1.7 11.1-1.7h11.5q-0.1-4.9-3.2-7.6-3.3-2.9-8.8-2.9-4.1 0-7.6 1.6-3.4 1.7-5.9 4.5l-5.8-6.3q3.7-3.6 8.6-5.7 5-2.1 11-2.1 6.4 0 11.2 2.2 4.8 2.2 7.5 6.4 2.7 4.1 2.7 9.9v27.9h-9.2zm-0.5-15.4h-10.6q-5.3 0-8.6 1.9-3.3 1.9-3.3 5.6 0 3.3 2.5 5.3 2.6 1.9 6.6 1.9 3.9 0 7.1-1.6 3.3-1.6 5.2-4.5 0.7-1 1.1-2.1zm-75 10.1q5.1 3.2 11.6 3.2 6.1 0 10.9-2.7 4.7-2.7 7.9-7.2l6.9 6.9q-4.2 5.6-11 8.8-6.8 3.3-15 3.3-7.3 0-13.4-2.5-6-2.5-10.5-7-4.4-4.5-6.9-10.7-2.5-6.1-2.5-13.3 0-7.3 2.5-13.5 2.5-6.2 7.1-10.7 4.5-4.5 10.7-7 6.1-2.5 13.3-2.5 8.2 0 14.8 3.3 6.7 3.3 10.9 8.9l-6.9 6.9q-3.2-4.6-7.9-7.3-4.8-2.6-10.9-2.6-6.5 0-11.6 3.2-5.2 3.2-8.1 8.7-3 5.5-3 12.6 0 7 3 12.5 2.9 5.5 8.1 8.7zm49.2 53.6h-29.4l-0.9 51.3h-15.5l0.9-51.3h-29.3l0.2-13.1h74.2zm-68.7 77.3q0.2-0.3 0.4-0.6 0.5-0.7 1.4-1.2 0.9-0.4 2-0.4 1.4 0 2.5 0.7 1.2 0.7 1.8 1.9 0.6 1.2 0.6 2.7 0 1.5-0.6 2.7-0.7 1.2-1.8 1.9-1.2 0.7-2.6 0.7-1.4 0-2.3-0.6-0.9-0.5-1.4-1.2v5.3h-1.8v-13.8h1.8zm0 4.7q0.2 0.3 0.4 0.7 0.5 0.7 1.3 1 0.8 0.4 1.7 0.4 1 0 1.8-0.5 0.7-0.4 1.2-1.3 0.4-0.8 0.4-1.9 0-1-0.4-1.9-0.4-0.8-1.2-1.3-0.7-0.5-1.7-0.5-1 0-1.8 0.5-0.8 0.5-1.2 1.4-0.5 0.9-0.5 2zm13.1-6.1q1.2-0.7 2.7-0.7 1.6 0 2.8 0.7 1.2 0.7 1.9 1.9 0.7 1.2 0.7 2.7 0 1.6-0.7 2.8-0.7 1.1-1.9 1.8-1.2 0.7-2.8 0.7-1.5 0-2.7-0.7-1.2-0.7-1.9-1.8-0.7-1.2-0.7-2.8 0-1.5 0.7-2.7 0.7-1.2 1.9-1.9zm-0.2 6.5q0.4 0.9 1.2 1.3 0.7 0.5 1.7 0.5 1 0 1.8-0.5 0.8-0.4 1.2-1.3 0.4-0.8 0.4-1.9 0-1.1-0.4-1.9-0.4-0.8-1.2-1.3-0.8-0.5-1.8-0.5-1 0-1.7 0.5-0.8 0.5-1.2 1.3-0.4 0.8-0.4 1.9 0 1.1 0.4 1.9zm13.7 1.1l2.5-7.9h1.7l2.5 8 2.3-8h1.8l-3.1 9.9h-2l-2.4-7.6-2.3 7.6h-2l-3.2-9.9h1.9zm14.6-7.6q1.2-0.7 2.7-0.7 1.5 0 2.6 0.6 1.1 0.7 1.8 1.9 0.6 1.2 0.6 2.7v0.1 0.6h-8.3q0.1 0.7 0.5 1.3 0.4 0.9 1.3 1.3 0.8 0.5 1.9 0.5 2 0 3.2-1.7l1.2 1.2q-0.8 1-1.9 1.5-1.2 0.5-2.6 0.5-1.6 0-2.9-0.6-1.2-0.7-1.9-1.9-0.7-1.2-0.7-2.7 0-1.6 0.6-2.8 0.7-1.2 1.9-1.8zm5.8 3.8q-0.1-0.7-0.3-1.3-0.4-0.8-1.1-1.2-0.8-0.5-1.7-0.5-1 0-1.7 0.5-0.8 0.5-1.2 1.3-0.3 0.5-0.4 1.2zm6-2.1q0.2-0.5 0.5-0.9 0.6-0.7 1.4-1 0.8-0.4 1.6-0.4h0.3v1.8h-0.5q-0.9 0-1.6 0.4-0.8 0.5-1.2 1.4-0.5 0.9-0.5 2.3v4.2h-1.8v-9.9h1.8zm7.4-1.8q1.2-0.7 2.7-0.7 1.5 0 2.6 0.7 1.1 0.7 1.8 1.8 0.6 1.2 0.6 2.7v0.2 0.5h-8.3q0.1 0.8 0.4 1.4 0.5 0.8 1.3 1.3 0.9 0.4 2 0.4 1.9 0 3.2-1.7l1.2 1.2q-0.8 1-1.9 1.5-1.2 0.6-2.6 0.6-1.6 0-2.9-0.7-1.2-0.7-1.9-1.9-0.8-1.2-0.8-2.7 0-1.5 0.7-2.7 0.7-1.2 1.9-1.9zm5.8 3.8q-0.1-0.6-0.4-1.2-0.4-0.8-1.1-1.3-0.7-0.4-1.6-0.4-1 0-1.7 0.4-0.8 0.5-1.2 1.3-0.3 0.6-0.4 1.2zm6.2-3.8q1.1-0.7 2.5-0.7 1.1 0 2 0.4 0.9 0.5 1.5 1.2 0.1 0.2 0.2 0.5v-6.2h1.9v14.4h-1.9v-1.5q-0.4 0.8-1.3 1.2-1 0.6-2.3 0.6-1.5 0-2.6-0.7-1.2-0.7-1.8-1.9-0.7-1.2-0.7-2.7 0-1.5 0.7-2.7 0.6-1.2 1.8-1.9zm-0.1 6.5q0.4 0.8 1.2 1.3 0.8 0.5 1.8 0.5 0.9 0 1.7-0.4 0.7-0.4 1.2-1 0.3-0.4 0.4-0.8v-1.3q0-1.1-0.4-2-0.4-0.9-1.2-1.4-0.8-0.5-1.8-0.5-1 0-1.7 0.5-0.8 0.5-1.2 1.3-0.4 0.8-0.4 1.9 0 1.1 0.4 1.9zm3.7-30.9l1.1-64.4h15.5l-1.2 64.4zm12.9 25.8q0.2-0.2 0.3-0.5 0.6-0.7 1.5-1.1 0.9-0.5 2-0.5 1.4 0 2.5 0.7 1.1 0.7 1.8 1.9 0.6 1.2 0.6 2.7 0 1.5-0.6 2.7-0.7 1.2-1.8 1.9-1.2 0.7-2.6 0.7-1.4 0-2.4-0.6-0.8-0.5-1.3-1.2v1.5h-1.8v-14.4h1.8zm0 4.7q0.2 0.3 0.4 0.7 0.5 0.7 1.3 1 0.7 0.4 1.6 0.4 1.1 0 1.8-0.5 0.8-0.4 1.2-1.3 0.5-0.8 0.5-1.9 0-1-0.4-1.9-0.4-0.8-1.2-1.3-0.7-0.4-1.7-0.4-1 0-1.8 0.4-0.8 0.5-1.2 1.4-0.5 0.9-0.5 2.1zm11.6-6.5l3.2 8 3.2-8h1.9l-4.9 11.5q-0.5 1.1-1.2 1.7-0.7 0.6-2 0.6h-1.1v-1.6h1q0.7 0 1.1-0.3 0.4-0.3 0.6-0.9l0.5-1.1-4.3-9.9zm21.7 5.8l4.9-10.2h2.7v14.3h-2.2v-10.9l-4.6 9.5h-1.7l-4.5-9.5v10.9h-2.2v-14.3h2.7zm12.1-1.8q1.1-0.4 2.5-0.4h2.5q0-1-0.7-1.7-0.7-0.6-1.9-0.6-0.9 0-1.7 0.4-0.8 0.3-1.3 1l-1.3-1.4q0.8-0.8 1.9-1.3 1.1-0.5 2.5-0.5 1.4 0 2.4 0.5 1.1 0.5 1.7 1.4 0.6 1 0.6 2.2v6.2h-2v-1.2q-0.5 0.6-1.3 1-1 0.6-2.3 0.6-1.1 0-2-0.5-0.9-0.4-1.4-1.1-0.4-0.7-0.4-1.7 0-1 0.6-1.8 0.6-0.7 1.6-1.1zm0.6 4q0.6 0.4 1.5 0.4 0.8 0 1.6-0.3 0.7-0.4 1.1-1 0.2-0.3 0.3-0.5v-1.4h-2.4q-1.2 0-1.9 0.4-0.7 0.4-0.7 1.2 0 0.8 0.5 1.2zm11.2-6.2q0.1-0.6 0.4-0.9 0.6-0.7 1.4-1.1 0.8-0.3 1.6-0.3 1.8 0 2.8 1.1 1.1 1.1 1.1 3.2v6h-2.3v-5.7q0-1.4-0.6-2-0.6-0.7-1.6-0.7-0.7 0-1.4 0.4-0.6 0.4-1 1.2-0.4 0.8-0.4 2.1v4.7h-2.3v-9.9h2.3zm16.5 7.6q-0.9 0.5-2.2 0.5-1.4 0-2.6-0.6-1.1-0.7-1.8-1.8-0.7-1.2-0.7-2.7 0-1.6 0.7-2.7 0.7-1.2 1.8-1.9 1.2-0.7 2.5-0.7 1.1 0 1.9 0.4 0.9 0.4 1.5 1.2 0.1 0.2 0.2 0.4v-1.6h2.2v8.8q0 1.6-0.7 2.8-0.7 1.2-2 1.9-1.2 0.6-2.8 0.6-1.4 0-2.6-0.4-1.2-0.5-2-1.3l1.3-1.5q0.6 0.6 1.3 1 0.8 0.4 1.9 0.4 1 0 1.8-0.4 0.8-0.5 1.2-1.2 0.4-0.7 0.4-1.8v-0.6q-0.5 0.7-1.3 1.2zm1.3-4.4q0-1.2-0.4-2-0.5-0.8-1.2-1.2-0.7-0.4-1.5-0.4-1 0-1.7 0.5-0.7 0.4-1.1 1.2-0.3 0.7-0.3 1.6 0 1 0.4 1.7 0.4 0.8 1.1 1.2 0.7 0.4 1.7 0.4 0.8 0 1.5-0.3 0.7-0.3 1.1-0.9 0.3-0.4 0.4-0.8zm-30.5-37.1l-15.2-32.7-0.7 40.6h-15l1.2-64.3h17.3l18.4 40.2 19.9-40.2h17l-1.2 64.3h-15.1l0.7-39.9-16 32zm37.5 32.3q1.2-0.7 2.8-0.7 1.6 0 2.8 0.7 1.2 0.7 1.9 1.9 0.7 1.2 0.7 2.8 0 1.5-0.7 2.7-0.7 1.2-1.9 1.9-1.2 0.7-2.8 0.7-1.6 0-2.8-0.7-1.3-0.7-2-1.9-0.7-1.2-0.7-2.8 0-1.5 0.7-2.7 0.7-1.2 2-1.9zm0.1 6.4q0.4 0.8 1.1 1.2 0.7 0.5 1.6 0.5 0.9 0 1.6-0.5 0.7-0.4 1.1-1.2 0.4-0.7 0.4-1.8 0-1-0.4-1.7-0.4-0.8-1.1-1.2-0.7-0.5-1.6-0.5-0.9 0-1.6 0.5-0.7 0.4-1.1 1.2-0.4 0.7-0.4 1.7 0 1.1 0.4 1.8zm16-9.2q1-1.1 2.4-1.6 1.4-0.6 3-0.6 1.7 0 3 0.6 1.4 0.5 2.4 1.6 1.1 1 1.6 2.3 0.6 1.4 0.6 3 0 1.6-0.6 3-0.5 1.3-1.6 2.3-1 1-2.4 1.6-1.3 0.6-3 0.6-1.6 0-3-0.6-1.4-0.6-2.4-1.6-1-1-1.6-2.3-0.5-1.4-0.5-3 0-1.6 0.5-3 0.6-1.3 1.6-2.3zm0.9 8.1q0.7 1.2 1.8 1.9 1.2 0.7 2.7 0.7 1.5 0 2.7-0.7 1.2-0.7 1.8-1.9 0.7-1.2 0.7-2.8 0-1.6-0.7-2.8-0.6-1.2-1.8-1.9-1.2-0.7-2.7-0.7-1.5 0-2.7 0.7-1.1 0.7-1.8 1.9-0.6 1.2-0.6 2.8 0 1.6 0.6 2.8zm15.6-7.4q0-2.7 2.7-2.7h2.2v1.8h-1.5q-0.6 0-0.9 0.3-0.2 0.2-0.2 0.9v1.5h2.6v1.8h-2.6v8.1h-2.3v-8.1h-1.8v-1.8h1.8zm8 0q0-2.7 2.7-2.7h2.2v1.8h-1.5q-0.6 0-0.9 0.2-0.3 0.3-0.3 0.9v1.5h2.7v1.8h-2.7v8.2h-2.2v-8.2h-1.9v-1.8h1.9zm7.8-3q0.6 0 1 0.4 0.4 0.4 0.4 0.9 0 0.6-0.4 1-0.4 0.4-1 0.4-0.6 0-1-0.4-0.4-0.4-0.4-0.9 0-0.6 0.4-1 0.4-0.4 1-0.4zm1.1 14.8h-2.2v-10h2.2zm4.7-9.6q1.3-0.7 2.8-0.7 1.4 0 2.5 0.5 1 0.5 1.8 1.5l-1.5 1.4q-0.4-0.7-1.1-1.1-0.6-0.4-1.6-0.4-0.9 0-1.6 0.4-0.7 0.4-1.1 1.2-0.4 0.8-0.4 1.8 0 1 0.4 1.8 0.4 0.7 1.1 1.2 0.7 0.4 1.6 0.4 1 0 1.6-0.4 0.7-0.4 1.1-1.1l1.5 1.4q-0.8 0.9-1.8 1.5-1.1 0.5-2.5 0.5-1.6 0-2.8-0.7-1.2-0.7-1.9-1.9-0.7-1.2-0.7-2.7 0-1.6 0.7-2.7 0.7-1.2 1.9-1.9zm10.8 0q1.2-0.7 2.7-0.7 1.5 0 2.7 0.7 1.1 0.6 1.8 1.8 0.6 1.2 0.6 2.7v0.1 0.7h-8.1q0.1 0.6 0.4 1.1 0.5 0.8 1.3 1.3 0.8 0.4 1.8 0.4 1.9 0 3.1-1.5l1.3 1.4q-0.8 0.9-1.9 1.4-1.2 0.5-2.6 0.5-1.7 0-3-0.7-1.3-0.7-2-1.9-0.7-1.2-0.7-2.7 0-1.6 0.7-2.8 0.7-1.2 1.9-1.8zm5.6 3.8q-0.1-0.6-0.4-1.1-0.3-0.8-1-1.2-0.6-0.4-1.5-0.4-0.9 0-1.6 0.4-0.7 0.4-1 1.2-0.3 0.5-0.4 1.1zm-54.6-66.7h65.3l-0.3 12.5h-65.2zm66.2 38.5h-67l0.3-12.8h67zm7.4 21.7h-4.5v12.3h-2.3v-12.3h-4.6v-2h11.4zm1.3 6.5q1.1-0.4 2.5-0.4h2.6q-0.1-1-0.8-1.6-0.7-0.7-1.9-0.7-0.9 0-1.7 0.4-0.8 0.4-1.3 1l-1.3-1.4q0.8-0.8 1.9-1.3 1.1-0.4 2.5-0.5 1.4 0.1 2.5 0.5 1 0.5 1.6 1.4 0.6 1 0.6 2.2v6.2h-2v-1.2q-0.5 0.6-1.3 1-1 0.6-2.3 0.6-1.1 0-2-0.5-0.9-0.4-1.4-1.1-0.4-0.7-0.4-1.7 0-1 0.6-1.7 0.6-0.8 1.6-1.2zm0.6 4q0.6 0.5 1.5 0.4 0.8 0 1.6-0.3 0.7-0.4 1.1-1 0.2-0.2 0.3-0.5v-1.4h-2.4q-1.2 0-1.9 0.4-0.7 0.4-0.7 1.2 0 0.8 0.5 1.2zm11.2-6.5q0.1-0.2 0.2-0.3 0.5-0.8 1.4-1.2 0.9-0.4 2-0.5 1.4 0.1 2.5 0.7 1.1 0.7 1.8 1.9 0.7 1.2 0.7 2.7 0 1.6-0.7 2.8-0.7 1.2-1.8 1.9-1.2 0.7-2.6 0.7-1.3 0-2.3-0.6-0.8-0.4-1.2-1.2v1.4h-2.3v-14.4h2.3zm0 4.8q0.1 0.4 0.4 0.7 0.4 0.6 1.1 1 0.7 0.3 1.5 0.3 1 0 1.7-0.4 0.7-0.5 1.1-1.2 0.4-0.8 0.4-1.8 0-1-0.4-1.8-0.3-0.8-1-1.2-0.7-0.4-1.6-0.4-1 0-1.7 0.4-0.7 0.5-1.1 1.3-0.4 0.8-0.4 1.8zm12.9 3.6h-2.3v-14.4h2.3zm4.7-9.6q1.2-0.7 2.7-0.7 1.5 0 2.6 0.7 1.2 0.7 1.8 1.8 0.7 1.2 0.7 2.8v0.1 0.7h-8.1q0.1 0.6 0.4 1.1 0.4 0.8 1.2 1.2 0.8 0.5 1.9 0.5 1.9 0 3.1-1.6l1.3 1.4q-0.8 0.9-2 1.4-1.1 0.6-2.5 0.6-1.7 0-3-0.7-1.3-0.7-2-1.9-0.8-1.2-0.8-2.7 0-1.6 0.7-2.8 0.7-1.2 2-1.9zm5.5 3.8q-0.1-0.6-0.3-1.1-0.4-0.7-1-1.2-0.7-0.4-1.5-0.4-0.9 0-1.6 0.5-0.7 0.4-1.1 1.2-0.2 0.4-0.3 1zm16.8-7.9q1.2 0.5 1.8 1.4 0.6 1 0.6 2.3 0 1.2-0.6 2.2-0.6 1-1.8 1.5-1.1 0.5-2.6 0.5h-3.4v5.8h-2.3v-14.3h5.7q1.5 0 2.6 0.6zm-6 6h3.4q1.3 0 2-0.7 0.7-0.6 0.7-1.6 0-1.1-0.7-1.7-0.7-0.6-2-0.6h-3.4zm11.7 2q1-0.4 2.4-0.4h2.6q0-1.1-0.7-1.7-0.7-0.6-2-0.6-0.9 0-1.7 0.3-0.7 0.4-1.3 1l-1.3-1.4q0.9-0.8 2-1.3 1.1-0.4 2.4-0.4 1.4 0 2.5 0.5 1.1 0.5 1.7 1.4 0.6 0.9 0.6 2.2v6.2h-2.1v-1.3q-0.5 0.7-1.3 1.1-1 0.5-2.2 0.5-1.2 0-2.1-0.4-0.8-0.4-1.3-1.2-0.5-0.7-0.5-1.6 0-1.1 0.6-1.8 0.6-0.7 1.7-1.1zm0.6 3.9q0.5 0.5 1.4 0.5 0.9 0 1.6-0.4 0.7-0.3 1.1-1 0.2-0.2 0.3-0.5v-1.4h-2.4q-1.1 0-1.9 0.4-0.7 0.5-0.7 1.3 0 0.7 0.6 1.1zm11.1-6.1q0.2-0.5 0.5-0.8 0.6-0.8 1.3-1.1 0.8-0.3 1.6-0.3h0.3v2.1h-0.5q-0.9 0-1.6 0.4-0.7 0.4-1.2 1.2-0.4 0.9-0.4 2.2v4.3h-2.2v-10h2.2zm7.6 6.1q1 0.4 2 0.4 1 0 1.7-0.4 0.6-0.4 0.6-1 0-0.6-0.6-0.9-0.5-0.3-1.9-0.5-2.2-0.3-3.2-1-1-0.7-1-1.9 0-0.9 0.6-1.7 0.5-0.7 1.5-1.1 0.9-0.4 2.2-0.4 1.4 0 2.5 0.5 1.1 0.5 2 1.3l-1.3 1.4q-0.7-0.7-1.5-1.1-0.8-0.4-1.7-0.4-0.9 0-1.5 0.4-0.6 0.4-0.6 1 0 0.4 0.5 0.7 0.6 0.2 1.9 0.4 2.2 0.3 3.2 1.1 1.1 0.7 1.1 2.1 0 0.9-0.6 1.7-0.6 0.7-1.6 1.1-1 0.4-2.4 0.4-1.4 0-2.7-0.4-1.2-0.5-2.1-1.4l1.3-1.4q0.7 0.7 1.6 1.1zm10.7-7.8q1.2-0.7 2.8-0.7 1.4 0 2.6 0.7 1.1 0.7 1.8 1.8 0.6 1.2 0.6 2.7v0.1 0.1 0.6h-8q0.1 0.7 0.3 1.2 0.5 0.8 1.3 1.2 0.8 0.4 1.8 0.4 1.9 0 3.2-1.5l1.2 1.4q-0.7 0.9-1.9 1.4-1.2 0.5-2.6 0.5-1.7 0-3-0.6-1.2-0.7-2-1.9-0.7-1.2-0.7-2.8 0-1.5 0.7-2.7 0.7-1.2 1.9-1.9zm5.6 3.8q-0.1-0.6-0.4-1.1-0.3-0.8-1-1.2-0.6-0.4-1.5-0.4-0.9 0-1.6 0.5-0.6 0.4-1 1.2-0.3 0.4-0.3 1zm6.5-2.1q0.2-0.5 0.5-0.9 0.6-0.7 1.4-1 0.7-0.3 1.5-0.3h0.3v2h-0.5q-0.9 0-1.6 0.4-0.7 0.4-1.1 1.3-0.5 0.8-0.5 2.2v4.2h-2.2v-10h2.2zm99.9-90.4l23.9 64.4h-16.6l-4-11.7h-26.2l-4.5 11.7h-16.1l26.3-64.4zm-1.2 39.8l-7.9-23-8.8 23zm49.5-39.8l-0.9 51.1h48.8l-0.3 13.3h-64.3l1.2-64.4zm41.5 0h18.4l14.1 25.3 15.1-25.3h18.3l-26 39.9-0.5 24.5h-15.4l0.4-24.6zm69.4 0h74.2l-0.3 13.1h-29.3l-1 51.3h-15.4l0.9-51.3h-29.3zm97.8 0l-1.2 64.3h-15.5l1.2-64.3z"/>
</svg>