<svg version="1.2" xmlns="http://www.w3.org/2000/svg" viewBox="0 0 900 298" width="900" height="298"><path id="Mango Office" fill="currentColor" class="s0" d="m847.6 172.9q-3.1 4.6-8.5 7.2-0.3 0.1-0.6 0.3l17.4 24.9h-18l-15-22.6h-27.1l-0.9 22.6h-14.9l2.5-63.5h45.9q6.9 0 12.1 2.5 5.2 2.6 7.9 7.2 2.8 4.6 2.6 10.7-0.3 6.1-3.4 10.7zm-13.7-16.3q-2.2-2.1-6-2.1h-31l-0.6 15.4h31q3.8 0 6.1-2 2.4-2.1 2.5-5.7 0.1-3.5-2-5.6zm-134.7-2.2l0.5-12.6h75.2l-0.5 12.6zm72.6 25.2h-73.5l0.5-12.5h73.5zm0.7 25.7h-75.2l0.5-12.6h75.2zm-98.7-49.6q-4.5-2.4-9.3-2.4-4.7 0-7.7 1.7-3 1.8-3.1 4.7-0.1 1.6 1.1 2.7 1.1 1.2 4 2 2.9 0.9 8.1 1.8 8 1.2 13.3 3.9 5.3 2.6 7.9 6.7 2.6 4.1 2.3 9.7-0.2 6.2-3.8 10.8-3.7 4.5-9.8 7-6.1 2.4-14 2.4-9.3 0-16.5-3.3-7.2-3.4-11.6-8.6l10.2-10.2q1.8 2.8 4.9 4.9 3.1 2 6.7 3.1 3.6 1 7.2 1 3.7 0 6.3-0.7 2.6-0.8 3.9-2.2 1.4-1.3 1.4-3.2 0.1-2.7-2.7-4.5-2.7-1.8-10.5-3-8.3-1.2-13.5-3.8-5.3-2.5-7.8-6.4-2.4-3.8-2.2-9.1 0.2-5.9 3.7-10.6 3.5-4.6 9.3-7.2 5.9-2.6 13.3-2.6 8.7 0 15.4 3.3 6.6 3.3 11 8.5l-10.1 10.1q-2.8-4.1-7.4-6.5zm-46.2 17.1q-3.1 4.6-8.5 7.2-0.3 0.2-0.6 0.3l17.4 25h-18l-15-22.7h-27.1l-0.8 22.7h-14.9l2.4-63.6h45.9q6.9 0 12.1 2.6 5.2 2.6 8 7.1 2.7 4.6 2.5 10.7-0.2 6.1-3.4 10.7zm-13.7-16.3q-2.2-2.1-6-2.1h-31l-0.6 15.5h31q3.8 0 6.2-2.1 2.3-2.1 2.4-5.7 0.2-3.5-2-5.6zm-32.4-59.8q2.1 3.6 5.6 5.5 3.6 2 8.3 2 8.6 0 14.2-7l5.8 6.4q-3.5 4-8.7 6.4-5.3 2.3-11.7 2.3-7.6 0-13.5-3-5.8-3.1-9.1-8.6-3.3-5.4-3.3-12.4 0-7 3.1-12.5 3.2-5.4 8.7-8.5 5.6-3.1 12.4-3.1 6.7 0 11.9 3.1 5.2 3 8.2 8.3 3 5.3 3 12.3v0.1 0.4 3.1h-36.7q0.5 2.8 1.8 5.2zm23.1-17.2q-1.7-3.4-4.6-5.3-2.9-1.8-6.8-1.8-4 0-7.2 1.9-3.1 2-4.8 5.5-1.1 2.1-1.5 4.8h26.4q-0.4-2.8-1.5-5.1zm-66.9 22.3q3.3 2 7.4 2 4.3 0 7.3-1.9 3.1-1.9 5.1-4.9l6.5 6.4q-3.4 4.1-8.3 6.5-4.8 2.4-11.2 2.4-7 0-12.4-3.1-5.5-3.1-8.7-8.5-3.2-5.4-3.2-12.5 0-6.9 3.2-12.3 3.2-5.4 8.7-8.5 5.6-3.2 12.7-3.2 6.1 0 11 2.4 4.8 2.3 8.2 6.6l-6.5 6.3q-2-3-5.1-4.9-3-1.9-7.3-1.9-4.1 0-7.4 2-3.2 2-5.1 5.5-1.8 3.5-1.8 8 0 4.6 1.8 8.1 1.9 3.5 5.1 5.5zm16.5 103.5h-16l-3.6-11.6h-25.2l-4.5 11.6h-15.5l26.6-63.6h16.5zm-30.8-47l-9 22.7h16.2zm-12.7-47.4h-10.2v-45.2h10.2zm-5.1-54.5q-2.6 0-4.5-1.8-1.9-1.8-1.9-4.4 0-2.7 1.9-4.5 1.9-1.8 4.5-1.8 2.7 0 4.6 1.8 1.8 1.8 1.8 4.4 0 2.7-1.8 4.5-1.9 1.8-4.6 1.8zm-11.9 116.5q-3.1 4.6-8.5 7.2-5.4 2.5-12.3 2.5h-31l-0.9 22.7h-14.9l2.4-63.6h45.9q7 0 12.2 2.6 5.1 2.6 7.9 7.2 2.8 4.6 2.5 10.7-0.2 6-3.3 10.7zm-13.8-16.4q-2.1-2-5.9-2.1h-31l-0.6 15.5h31q3.8 0 6.1-2.1 2.3-2.1 2.5-5.6 0.1-3.6-2.1-5.7zm0.3-45.6h-10.1v-36.9h-8.4v-8.3h8.4v-8q0-12 12-12h10v8.1h-6.8q-2.7 0-3.9 1.1-1.2 1.2-1.2 4v6.8h11.9v8.3h-11.9zm-35.5 0h-10.1v-37h-8.4v-8.2h8.4v-8q0-12.1 12-12.1h10v8.1h-6.8q-2.7 0-3.9 1.2-1.2 1.2-1.2 4v6.8h11.9v8.2h-11.9zm-35.9-8.2q-4.7 4.6-10.9 7.1-6.3 2.6-13.7 2.6-7.4 0-13.7-2.6-6.2-2.5-10.8-7.1-4.7-4.6-7.2-10.8-2.5-6.2-2.5-13.4 0-7.3 2.5-13.4 2.5-6.2 7.2-10.8 4.6-4.5 10.8-7.1 6.3-2.5 13.7-2.5 7.4 0 13.7 2.5 6.2 2.6 10.9 7.1 4.6 4.6 7.1 10.8 2.6 6.1 2.6 13.4 0 7.2-2.6 13.4-2.5 6.2-7.1 10.8zm-4.2-36.9q-3-5.5-8.3-8.7-5.2-3.2-12.1-3.2-6.8 0-12.1 3.2-5.3 3.2-8.3 8.7-3 5.5-3 12.7 0 7.1 3 12.7 3 5.6 8.3 8.7 5.3 3.2 12.1 3.2 6.9 0 12.1-3.2 5.3-3.1 8.3-8.7 3-5.6 3-12.7 0-7.2-3-12.7zm-92.6 43.5q-5.6 3.1-12.9 3.1-7.1 0-12.7-3.1-5.6-3.1-8.7-8.5-3.2-5.5-3.2-12.5 0-7 3.2-12.5 3.1-5.4 8.7-8.5 5.6-3.1 12.7-3.1 7.3 0 12.9 3.1 5.5 3.1 8.7 8.5 3.1 5.5 3.1 12.5 0 7-3.1 12.5-3.2 5.4-8.7 8.5zm-0.5-29.1q-1.8-3.5-4.9-5.4-3.2-2-7.4-2-4.1 0-7.4 1.9-3.2 2-4.9 5.5-1.8 3.5-1.8 8.1 0 4.6 1.8 8.1 1.7 3.5 4.9 5.4 3.3 2 7.4 2 4.2 0 7.4-2 3.1-1.9 4.9-5.4 1.8-3.5 1.8-8.1 0-4.6-1.8-8.1zm-58.6 46.7q-5.7 3-13 3-6.4 0-11.9-2.1-5.4-2.1-8.9-5.8l5.8-6.8q2.7 2.9 6.3 4.6 3.5 1.7 8.2 1.7 4.8 0 8.2-1.9 3.5-1.9 5.4-5.3 1.9-3.3 1.9-7.9v-2.7q-2.1 3.1-5.6 5.1-4.4 2.5-10.3 2.5-6.4 0-11.7-3-5.2-2.9-8.2-8.2-3-5.3-3-12.2 0-7 3.1-12.3 3-5.3 8.2-8.3 5.2-3.1 11.4-3.1 4.8 0 8.7 1.9 3.8 1.8 6.4 5.2 0.6 0.8 1.1 1.8v-7.4h10.1v40.2q0 7.2-3.3 12.6-3.2 5.4-8.9 8.4zm2-37.9q0-5.4-2-8.9-2-3.6-5.1-5.5-3.2-1.8-7.1-1.8-4.2 0-7.3 2-3.2 1.9-5 5.3-1.7 3.4-1.7 7.7 0 4.4 1.8 7.7 1.8 3.4 5.1 5.3 3.2 1.9 7.6 1.9 3.7 0 6.8-1.5 3.1-1.5 5.2-4.2 1.1-1.6 1.7-3.4zm-32.1 54.8q4.6 2.1 7.1 5.8 2.4 3.6 2.2 8.6-0.1 4.7-2.9 8.4-2.3 3.1-6.2 5.1 0 0 0.1 0 5.1 2.1 7.9 5.9 2.8 3.8 2.6 9.1-0.2 5.6-3.3 9.8-3.1 4.2-8.4 6.5-5.4 2.4-12.4 2.4h-47.3l2.4-63.6h47.4q6.2 0 10.8 2zm-45.3 49h32.6q3.8 0 6.1-1.9 2.3-1.9 2.4-5.3 0.1-3.1-2-4.9-2.2-1.8-6-1.8h-32.5zm37.8-36.9q-1.7-1.6-4.9-1.6h-31.4l-0.5 12.5h31.4q3.2 0 5.1-1.7 1.8-1.8 1.9-4.8 0.1-2.8-1.6-4.4zm-18.3-71q0-6.1-2.7-9.1-2.8-2.9-7.4-2.9-3.3 0-6.3 1.7-2.9 1.7-4.7 5.4-1.8 3.7-1.8 9.6v21.4h-10.2v-45.2h10.1v8.6q0.8-2.3 2.1-3.9 2.7-3.4 6.2-4.8 3.5-1.4 7.3-1.4 8.1 0 12.8 5 4.7 5 4.7 14.5v27.2h-10.1zm-60.4 108.9h-25.1l-4.6 11.6h-15.5l26.6-63.6h16.6l21.7 63.6h-16zm-11.2-35.5l-9 22.8h16.2zm18.5-53.1q-2.3 2.9-5.7 4.7-4.5 2.4-10.3 2.4-5.2 0-9.2-1.9-4-1.9-6.1-5.1-2.2-3.3-2.2-7.6 0-4.8 2.7-8.1 2.7-3.3 7.6-5 4.8-1.8 11.2-1.8h11.5q0-4.9-3.2-7.7-3.3-2.8-8.9-2.8-4.1 0-7.6 1.6-3.4 1.6-6 4.5l-5.8-6.3q3.7-3.7 8.7-5.8 5-2.1 11.1-2.1 6.4 0 11.2 2.2 4.9 2.3 7.6 6.4 2.7 4.2 2.7 10v28.1h-9.3zm-0.5-15.5h-10.6q-5.4 0-8.7 1.9-3.3 1.9-3.3 5.7 0 3.3 2.5 5.3 2.6 1.9 6.6 1.9 3.9 0 7.2-1.6 3.3-1.7 5.2-4.5 0.7-1 1.1-2.1zm-71.4 64.8l-1.9 50.7h-14.9l1.9-50.7h-28.6l0.5-12.9h72.1l-0.5 12.9zm18-92.9l-20.5 42.8h-7.7l-20.5-42.8v49.2h-10.2v-64.7h12.5l22.2 46.4 22.1-46.4h12.3v64.7h-10.2zm166.6 80l-1.8 45-0.3 6.3h47.8l-0.5 12.3h-62.6l2.5-63.6zm127.2 51.3l-0.5 12.3h-75.2l0.4-12.3zm-74.7-13.4l0.5-12.6h73.6l-0.5 12.6zm1.5-37.9h75.2l-0.5 12.7h-75.2z"/></svg>