<svg version="1.2" xmlns="http://www.w3.org/2000/svg" viewBox="0 0 900 298" width="900" height="298"><path id="Mango Office Table Parser" fill="currentColor" class="s0" d="m890.9 139.1q-3.6 0-6.2 1.4-2.6 1.4-4.1 4.4-1.5 3-1.5 7.8v16.4h-10.1v-38.5h10v7.5q0.7-1.7 1.6-3 2.2-2.8 5.2-4 2.9-1.2 5.7-1.2h1.4v9.2zm-55 17.5q1.6 2.9 4.5 4.4 2.9 1.4 6.6 1.4 6.9 0 11.6-5.3l5.4 6.2q-2.9 3.3-7.5 5.2-4.5 1.8-10 1.8-6.7 0-11.7-2.6-5.1-2.6-7.9-7.2-2.9-4.6-2.9-10.6 0-6 2.8-10.7 2.7-4.6 7.4-7.2 4.7-2.6 10.6-2.6 5.7 0 10.2 2.6 4.5 2.5 7 7 2.5 4.5 2.5 10.5v0.5 3h-30q0.4 2 1.4 3.6zm18.6-10.1q-0.3-2-1.1-3.7-1.3-2.6-3.5-4.1-2.1-1.4-5.1-1.4-3.2 0-5.5 1.5-2.4 1.5-3.7 4.3-0.8 1.5-1.1 3.4zm-49-1.3q8.3 1.2 12.4 4 4.2 2.8 4.2 8.2 0 3.9-2.3 6.8-2.3 3-6.4 4.6-4 1.5-9.3 1.5-5.8 0-10.6-1.9-4.8-1.9-8.2-5l5.5-6.3q2.6 2.6 6.3 4.1 3.6 1.6 7.4 1.6 3.5 0 5.7-1.3 2.1-1.3 2.1-3.3 0-2-1.9-2.9-1.9-1-6.9-1.7-8.5-1.2-12.4-3.9-3.9-2.7-3.9-7.5 0-3.9 2.2-6.7 2.1-2.9 5.9-4.5 3.9-1.6 8.7-1.6 5.7 0 10.1 1.8 4.4 1.9 7.6 4.8l-5.5 6.3q-2.4-2.4-5.5-3.9-3.1-1.4-6.6-1.4-3.3 0-5.3 1.2-1.9 1.2-1.9 3.1 0 1.6 1.9 2.4 1.9 0.8 6.7 1.5zm-28.3-4.7q-2.6 1.4-4.1 4.4-1.5 3-1.5 7.8v16.4h-10.1v-38.5h10.1v7.5q0.6-1.7 1.6-3 2.2-2.8 5.1-4 3-1.2 5.8-1.2h1.4v9.2h-2.1q-3.6 0-6.2 1.4zm-30.1 24.1q-1.8 2.2-4.5 3.7-3.7 2-8.6 2-4.5 0-7.8-1.6-3.4-1.6-5.3-4.4-1.8-2.8-1.8-6.6 0-4 2.3-6.8 2.3-2.8 6.5-4.3 4.2-1.5 9.8-1.5h8.9q-0.2-3.6-2.6-5.7-2.6-2.2-7.1-2.2-3.3 0-6.2 1.3-2.8 1.2-5 3.5l-5.3-6.1q3.1-3.1 7.5-4.8 4.3-1.7 9.5-1.7 5.5 0 9.8 1.9 4.3 1.9 6.7 5.5 2.3 3.5 2.4 8.7v23.6h-9.2zm-0.5-12.9h-8.1q-4.1 0-6.7 1.4-2.5 1.5-2.5 4.2 0 2.6 2 4 1.9 1.5 5.1 1.5 2.9 0 5.4-1.3 2.4-1.2 4-3.5 0.5-0.7 0.8-1.4zm-36.9-6q-4.4 2.1-10.3 2.1h-11.9v21.3h-10.3v-54.7h22.2q5.9 0 10.3 2.1 4.4 2.1 6.9 5.8 2.5 3.8 2.5 8.8 0 4.9-2.5 8.7-2.5 3.8-6.9 5.9zm-3.6-20.4q-2.4-2.2-6.7-2.2h-11.9v16h11.9q4.3 0 6.7-2.1 2.5-2.2 2.5-5.9 0-3.7-2.5-5.8zm-74.9 31.3q1.6 2.9 4.5 4.3 2.9 1.5 6.6 1.5 6.9 0 11.7-5.3l5.3 6.2q-2.9 3.3-7.5 5.1-4.5 1.9-10 1.9-6.7 0-11.7-2.6-5.1-2.6-7.9-7.2-2.8-4.6-2.8-10.6 0-6.1 2.7-10.7 2.7-4.6 7.4-7.2 4.7-2.6 10.6-2.6 5.7 0 10.2 2.5 4.5 2.6 7 7.1 2.5 4.5 2.5 10.5v0.5 3h-29.9q0.4 2 1.3 3.6zm18.6-10.1q-0.3-2-1.1-3.7-1.3-2.6-3.4-4.1-2.2-1.4-5.2-1.4-3.1 0-5.5 1.5-2.4 1.4-3.7 4.2-0.8 1.6-1.1 3.5zm-45.1-32.5h10.1v55.1h-10.1zm-13.9 53.7q-4.3 2.6-9.8 2.6-4.9 0-8.5-2.1-2.8-1.7-4.5-4.1v5h-10v-55.1h10.1v22.1q0.1-0.1 0.2-0.3 2-3 5.3-4.7 3.4-1.7 7.7-1.7 5.2 0 9.6 2.6 4.4 2.6 6.9 7.2 2.6 4.6 2.6 10.7 0 6-2.6 10.6-2.6 4.6-7 7.2zm-2.2-24.1q-1.4-2.7-3.7-4.3-2.4-1.5-5.8-1.5-3.2 0-5.7 1.5-2.5 1.6-3.9 4.3-1.4 2.7-1.4 6.5v5q0.5 1.4 1.4 2.5 1.5 2.1 3.9 3.2 2.4 1.1 5.3 1.1 3.3 0 5.8-1.5 2.6-1.6 4-4.3 1.4-2.8 1.4-6.2 0-3.6-1.3-6.3zm-45.1 21q-1.8 2.2-4.4 3.7-3.7 2-8.6 2-4.5 0-7.8-1.6-3.4-1.6-5.3-4.4-1.9-2.9-1.9-6.6 0-4 2.3-6.8 2.3-2.8 6.6-4.3 4.2-1.5 9.8-1.5h8.9q-0.2-3.7-2.6-5.7-2.6-2.2-7.1-2.2-3.3 0-6.2 1.2-2.9 1.3-5 3.6l-5.3-6.1q3.1-3.1 7.4-4.8 4.4-1.7 9.5-1.7 5.6 0 9.9 1.9 4.3 1.9 6.6 5.5 2.4 3.5 2.4 8.6v23.7h-9.2zm-0.4-12.9h-8.1q-4.2 0-6.7 1.4-2.5 1.5-2.5 4.2 0 2.6 1.9 4 2 1.5 5.1 1.5 3 0 5.5-1.3 2.4-1.3 3.9-3.5 0.5-0.7 0.9-1.5zm-36.9 17.5h-10.3v-45.9h-17.2v-8.8h44.6v8.8h-17.1zm-72.3-11.5q1.8 3.2 5 5 3.2 1.7 7.3 1.7 7.6 0 12.4-6.4l4.4 4.6q-2.9 3.7-7.3 5.7-4.3 2.1-9.7 2.1-6.2 0-11-2.6-4.9-2.6-7.6-7.2-2.7-4.5-2.7-10.4 0-5.9 2.6-10.5 2.6-4.5 7.2-7.1 4.6-2.6 10.3-2.6 5.6 0 9.9 2.6 4.4 2.5 6.9 7 2.4 4.5 2.4 10.4v0.4 2.2h-31.8q0.4 2.8 1.7 5.1zm22.8-10.4q-0.3-2.7-1.4-4.8-1.5-3.1-4.2-4.8-2.7-1.7-6.3-1.7-3.7 0-6.6 1.7-2.9 1.8-4.5 5-1.1 2-1.4 4.6zm-56 15.2q2.9 1.8 6.8 1.8 3.8 0 6.4-1.6 2.7-1.6 4.4-4.3l4.8 4.6q-2.7 3.4-6.8 5.4-4 2-9.1 2-5.9 0-10.4-2.6-4.6-2.6-7.2-7.2-2.6-4.5-2.6-10.4 0-5.8 2.6-10.4 2.6-4.5 7.3-7.2 4.6-2.6 10.4-2.6 5.1 0 9.1 2 4 2 6.7 5.4l-4.8 4.6q-1.7-2.7-4.4-4.3-2.7-1.6-6.4-1.6-3.9 0-6.8 1.8-3 1.8-4.6 5-1.6 3.2-1.6 7.3 0 4.1 1.6 7.3 1.6 3.2 4.6 5zm-22.6-40.2q-2 0-3.4-1.4-1.4-1.3-1.4-3.2 0-2.1 1.4-3.5 1.4-1.3 3.3-1.3 2.1 0 3.4 1.3 1.4 1.4 1.4 3.4 0 2-1.4 3.3-1.3 1.4-3.3 1.4zm-18.5 46.9h-7.1v-32h-7.5v-6h7.5v-7.5q0-9.6 9.7-9.6h8v5.7h-6q-2.5 0-3.5 1.1-1.1 1.1-1.1 3.4v6.9h10.6v6h-10.6zm-28 0h-7.1v-32h-7.5v-6h7.5v-7.5q0-9.6 9.7-9.6h8v5.7h-6.1q-2.4 0-3.4 1.1-1.1 1.1-1.1 3.4v6.9h10.6v6h-10.6zm-26.1-6.9q-3.9 3.8-9.1 6-5.2 2.1-11.4 2.1-6.2 0-11.4-2.1-5.2-2.2-9.1-6-3.9-3.9-6.1-9.1-2.1-5.3-2.1-11.4 0-6.1 2.1-11.3 2.2-5.2 6.1-9.1 3.9-3.8 9.1-6 5.2-2.1 11.4-2.1 6.2 0 11.4 2.1 5.2 2.2 9.1 6 3.9 3.9 6 9.1 2.2 5.2 2.2 11.3 0 6.1-2.2 11.4-2.1 5.2-6 9.1zm-2.2-31.8q-2.7-5-7.4-7.8-4.7-2.8-10.9-2.8-6.2 0-10.9 2.8-4.8 2.8-7.5 7.8-2.6 5-2.6 11.3 0 6.4 2.6 11.4 2.7 5 7.5 7.8 4.7 2.8 10.9 2.8 6.2 0 10.9-2.8 4.7-2.8 7.4-7.8 2.6-5 2.6-11.4 0-6.3-2.6-11.3zm-73.1 37.3q-4.5 2.6-10.5 2.6-6 0-10.6-2.6-4.6-2.6-7.2-7.1-2.6-4.6-2.6-10.5 0-5.9 2.6-10.4 2.6-4.5 7.2-7.1 4.6-2.7 10.6-2.7 6 0 10.5 2.7 4.6 2.6 7.2 7.1 2.7 4.5 2.7 10.4 0 5.9-2.7 10.5-2.6 4.5-7.2 7.1zm0.7-24.9q-1.6-3.2-4.5-5-2.9-1.7-6.7-1.7-3.8 0-6.7 1.7-2.9 1.8-4.6 5-1.6 3.2-1.6 7.3 0 4.2 1.6 7.3 1.7 3.2 4.6 5 2.9 1.8 6.7 1.8 3.8 0 6.7-1.8 2.9-1.8 4.5-5 1.7-3.1 1.7-7.3 0-4.1-1.7-7.3zm-46.9 39.8q-4.5 2.6-10.5 2.6-5.4 0-9.9-1.9-4.4-1.9-7.3-5.2l4.4-4.7q2.1 2.7 5.2 4.2 3.1 1.5 7.4 1.5 4.1 0 7.1-1.7 3-1.7 4.7-4.7 1.7-3.1 1.7-7.1v-2.9q-1.9 2.9-5.2 4.7-3.8 2.1-8.7 2.1-5.5 0-9.9-2.5-4.4-2.5-7-7-2.5-4.4-2.5-10.2 0-5.8 2.6-10.3 2.5-4.4 6.9-7 4.3-2.6 9.6-2.6 3.9 0 7.3 1.5 3.3 1.4 5.6 4.3 0.8 1 1.4 2.1v-6.6h7v34.2q0 5.8-2.6 10.3-2.7 4.4-7.3 6.9zm2.8-31.6q0-4.9-1.8-8.2-1.9-3.3-4.8-5-3-1.7-6.4-1.7-3.8 0-6.7 1.8-3 1.8-4.6 4.9-1.6 3.1-1.6 7 0 4 1.7 7.1 1.6 3 4.6 4.7 2.9 1.8 6.9 1.8 3.5 0 6.4-1.5 2.9-1.4 4.8-4 1-1.3 1.5-2.8zm-45.3-3.7q0-5.6-2.5-8.4-2.5-2.8-6.8-2.8-3.1 0-5.8 1.6-2.8 1.6-4.5 5.1-1.7 3.4-1.7 8.8v17.6h-7.1v-38h7.1v7.6q0.8-2.1 1.9-3.6 2.3-2.8 5.3-4 3.1-1.2 6.4-1.2 6.9 0 10.8 4.2 4 4.3 4 12.3v22.7h-7.1zm-41.5 16.8q-2.1 2.6-5.1 4.2-3.9 2.1-8.9 2.1-4.3 0-7.6-1.6-3.3-1.6-5.1-4.3-1.9-2.8-1.9-6.3 0-4 2.3-6.8 2.2-2.8 6.2-4.3 4-1.5 9.1-1.5h10.7q0-4.5-2.9-7.1-2.9-2.6-7.9-2.6-3.6 0-6.5 1.4-3 1.5-5.2 4.1l-4.5-4.6q3.2-3.2 7.2-5 4.1-1.8 9.2-1.8 5.2 0 9.1 1.9 4 1.9 6.2 5.3 2.2 3.4 2.2 8.2v23.7h-6.6zm-0.3-13.1h-9.9q-4.8 0-7.9 1.7-3.1 1.8-3.1 5.4 0 3 2.3 4.8 2.3 1.9 6.1 1.9 3.7 0 6.6-1.5 3-1.4 4.8-4.1 0.7-0.9 1.1-2zm-41.5-25.8l-18.7 38.9h-5.5l-18.7-38.9v44h-7.1v-54.7h9.1l19.5 41 19.6-41h8.9v54.7h-7.1zm323.4 44h-7.1v-37.9h7.1z"/></svg>