<svg version="1.2" xmlns="http://www.w3.org/2000/svg" viewBox="0 0 96 1184" width="96" height="1184"><style></style><path  d="m46.9 11.9q6.6 4.4 10.3 12.2 0.2 0.4 0.5 0.8l35.6-24.9v25.8l-32.4 21.4v38.8l32.4 1.3v21.3l-90.9-3.6v-65.6q0-9.9 3.6-17.4 3.7-7.4 10.3-11.3 6.6-4 15.3-3.7 8.8 0.5 15.3 4.9zm-23.3 19.6q-3 3.1-3 8.6v44.3l22 0.9v-44.4q0-5.4-2.8-8.7-3-3.4-8.2-3.6-5-0.1-8 2.9zm-3.1 192.7l-18.1-0.8v-107.5l18.1 0.7zm36-103.8v105.1l-17.9-0.7v-105.2zm36.8-1v107.6l-18-0.7v-107.6zm-71 141.2q-3.4 6.4-3.4 13.3 0 6.7 2.4 11 2.6 4.3 6.7 4.4 2.3 0.2 3.9-1.5 1.7-1.6 2.9-5.7 1.3-4.2 2.5-11.6 1.8-11.5 5.6-19.1 3.7-7.5 9.6-11.3 5.9-3.7 13.9-3.2 8.8 0.2 15.4 5.4 6.5 5.3 10 14 3.5 8.7 3.5 20 0 13.3-4.7 23.6-4.9 10.3-12.3 16.6l-14.6-14.6q4-2.5 7-7 2.8-4.4 4.4-9.6 1.4-5.1 1.4-10.3 0-5.2-1-9-1.1-3.7-3.1-5.5-1.9-2-4.6-2-3.9-0.2-6.4 3.8-2.6 3.9-4.3 15-1.7 11.9-5.5 19.3-3.5 7.6-9.1 11.2-5.4 3.4-13 3.1-8.5-0.2-15.2-5.2-6.6-5.1-10.3-13.3-3.7-8.5-3.7-19.1 0-12.4 4.7-22 4.7-9.4 12.2-15.7l14.4 14.4q-5.8 4-9.3 10.6zm24.5 66.1q6.6 4.4 10.3 12.1 0.3 0.5 0.4 0.9l35.8-24.9v25.8l-32.5 21.4v38.8l32.5 1.1v21.3l-91-3.4v-65.7q0-9.8 3.7-17.3 3.7-7.4 10.2-11.4 6.6-3.9 15.3-3.6 8.7 0.3 15.3 4.9zm-23.3 19.6q-3 3.1-3 8.6v44.3l22.1 0.9v-44.4q0-5.4-3-8.9-3-3.2-8.1-3.4-5-0.3-8 2.9zm69.8 85.4v22.9l-16.6 5.1v36l16.6 6.5v22.2l-91-38.1v-23.6zm-67.2 44.1l32.4 12.8v-23.1zm20.9 42.4q6.6 4.5 10.3 12.2 3.6 7.7 3.6 17.6v44.3l32.5 1.3v21.3l-91-3.4v-65.6q0-10.1 3.7-17.5 3.7-7.3 10.3-11.3 6.6-4 15.3-3.6 8.6 0.3 15.3 4.7zm-23.4 19.8q-2.9 3-3 8.4v44.4l22.1 0.8v-44.3q0-5.5-3-8.7-3-3.3-8-3.6-5.1-0.2-8.1 3zm-18.2 367.7q3-6.6 8.3-10.1 5.1-3.5 12.3-3.2 6.7 0.2 12 4.2 4.4 3.3 7.3 8.8 0 0 0-0.1 3-7.3 8.4-11.3 5.5-4 13.1-3.7 8 0.3 14 4.7 6 4.4 9.3 12 3.4 7.7 3.4 17.8v67.6l-91-3.4v-67.8q0-8.9 2.9-15.5zm70.1 64.8v-46.6q0-5.4-2.7-8.7-2.7-3.3-7.6-3.5-4.4-0.1-7 2.9-2.6 3.1-2.6 8.6v46.5zm-52.8-54.1q-2.3 2.4-2.3 7v44.9l17.9 0.7v-44.9q0-4.6-2.4-7.3-2.6-2.5-6.9-2.7-4-0.1-6.3 2.3zm54.2 112.6v35.9l16.6 6.5v22.2l-90.9-38v-23.8l90.9-31v22.9zm-50.7 16l32.6 12.9v-23.2zm-5.5 76.4l72.5 2.7v21.3l-72.5-2.7v40.9l-18.4-0.7v-103.1l18.4 0.7zm-18.4-264.1l64.3 2.6 9.1 0.4v-68.3l17.5 0.7v89.5l-90.9-3.6zm73.4-181.9l17.5 0.7v107.6l-17.5-0.6zm-19.2 106.8l-18-0.7v-105.2l18 0.7zm-54.2-2.2v-107.5l18.1 0.7v107.5z"/></svg>