<svg version="1.2" xmlns="http://www.w3.org/2000/svg" viewBox="0 0 24 24" width="24" height="24"><style>.a{fill:#fff}</style><path fill-rule="evenodd" class="a" d="m10 7.3c0.6 0.6 0.4 1.3-0.1 2q-0.2 0.3-0.5 0.5c-0.1 0.1-0.1 0.2-0.3 0.3q-0.4 0.5-0.7 0.8c-0.1 0.1 0.6 1.5 1.9 2.8 1.3 1.3 2.7 2 2.8 1.9l0.8-0.7c0.4-0.5 0.6-0.7 0.9-0.9 0.6-0.4 1.3-0.5 1.9 0 2 1.4 3 2.2 3.6 2.8 1 1.1 0.9 2.7 0 3.7q-0.5 0.5-1.2 1.1c-2.8 2.8-8.7 1.1-13.3-3.4-4.5-4.6-6.2-10.5-3.4-13.3 0.5-0.5 0.6-0.7 1.1-1.2 0.9-0.9 2.7-1 3.7 0 0.6 0.6 1.5 1.7 2.8 3.6zm5.3 9l-0.8 0.7c-1.3 1.3-3.5 0.2-5.6-1.9-2.1-2.1-3.2-4.3-1.9-5.6q0.3-0.3 0.7-0.8c0.2-0.1 0.2-0.2 0.3-0.2q0.1-0.2 0.2-0.3-1.7-2.4-2.4-3c-0.2-0.3-0.7-0.2-0.9 0-0.5 0.4-0.6 0.6-1.1 1.1-1.8 1.8-0.4 6.6 3.4 10.5 3.9 3.8 8.7 5.2 10.5 3.4q0.7-0.7 1.1-1.1c0.2-0.2 0.3-0.7 0-0.9-0.4-0.4-1.3-1.2-3-2.4-0.1 0.1-0.3 0.2-0.5 0.5zm5.7-11.9l-5.3 5.3-1.4-1.4 5.3-5.3h-3.6v-2h7v7h-2z"/></svg>