<svg version="1.2" xmlns="http://www.w3.org/2000/svg" viewBox="0 0 24 24" width="24" height="24"><style>.a{fill:#fff}</style><path fill-rule="evenodd" class="a" d="m14.4 18.3c-0.6-0.2-1.5-0.3-2.4-0.3-0.9 0-1.8 0.1-2.4 0.3q-0.4 0.2-0.6 0.3v0.9c0 0.6 0 0.8-0.1 1.2-0.1 0.7-0.5 1.3-1.3 1.3q-3 0.5-4.1 0.5c-1.5 0-2.5-1.3-2.5-2.5v-1.5c0-3.7 5-6.5 11-6.5 6 0 11 2.8 11 6.5q0 0.2 0 0.5c0 0.1 0 0.3 0 0.5 0 0.3 0 0.4 0 0.5 0 1.2-1 2.5-2.5 2.5q-1.1 0-4.1-0.5c-1.1 0-1.3-0.8-1.4-2 0-0.1 0-0.2 0-0.5 0-0.5 0-0.6 0-0.9q-0.2-0.1-0.6-0.3zm-7.4 1.2v-1c0-1.8 2.2-2.5 5-2.5 2.8 0 5 0.7 5 2.5 0 0.4 0 0.4 0 1 0 0.2 0 0.3 0 0.4q0 0.1 0 0.2 2.6 0.4 3.5 0.4c0.2 0 0.5-0.3 0.5-0.5 0-0.1 0-0.3 0-0.5 0-0.3 0-0.4 0-0.5q0-0.3 0-0.5c0-2.3-4-4.5-9-4.5-5 0-9 2.2-9 4.5v1.5c0 0.2 0.3 0.5 0.5 0.5q0.8 0 3.5-0.4 0-0.2 0-0.6zm0-15.1v2.6h-2v-6h6v2h-2.6l3.6 3.6 5.3-5.3 1.4 1.4-6.7 6.7z"/></svg>