<svg version="1.2" xmlns="http://www.w3.org/2000/svg" viewBox="0 0 50 50" width="50" height="50">
	<title>download</title>
	<defs>
		<clipPath clipPathUnits="userSpaceOnUse" id="cp1">
			<path d="m25 47.16c-12.25 0-22.16-9.91-22.16-22.16 0-12.25 9.91-22.16 22.16-22.16 12.25 0 22.16 9.91 22.16 22.16 0 12.25-9.91 22.16-22.16 22.16z"/>
		</clipPath>
		<linearGradient id="g1" x2="1" gradientUnits="userSpaceOnUse" gradientTransform="matrix(29.5,-29.5,29.5,29.5,10.25,39.75)">
			<stop offset="0" stop-color="#ff0090"/>
			<stop offset=".5" stop-color="#ff0000"/>
			<stop offset="1" stop-color="#ff6c00"/>
		</linearGradient>
	</defs>
	<style>
		.s0 { fill: #ffffff } 
		.s1 { fill: url(#g1) } 
	</style>
	<g clip-path="url(#cp1)">
		<path id="форма 1" fill-rule="evenodd" class="s0" d="m25 47.2c-12.3 0-22.2-9.9-22.2-22.2 0-12.3 9.9-22.2 22.2-22.2 12.3 0 22.2 9.9 22.2 22.2 0 12.3-9.9 22.2-22.2 22.2z"/>
		<path class="s1" d="m50 0v50h-50v-50z"/>
		<path class="s0" d="m23 8h4c1.1 0 2 0.9 2 2v18c0 1.1-0.9 2-2 2h-4c-1.1 0-2-0.9-2-2v-18c0-1.1 0.9-2 2-2z"/>
		<path class="s0" d="m23 34h4c1.1 0 2 0.9 2 2v4c0 1.1-0.9 2-2 2h-4c-1.1 0-2-0.9-2-2v-4c0-1.1 0.9-2 2-2z"/>
	</g>
</svg>